<?xml version="1.0" encoding="utf-8"?>
<!-- Generator: Adobe Illustrator 22.0.1, SVG Export Plug-In . SVG Version: 6.00 Build 0)  -->
<svg version="1.1" xmlns="http://www.w3.org/2000/svg" xmlns:xlink="http://www.w3.org/1999/xlink" x="0px" y="0px"
	 viewBox="0 0 500 500" enable-background="new 0 0 500 500" xml:space="preserve">
<g id="BACKGROUND">
	<rect x="-0.5" y="0.6" fill="#87C34D" width="500" height="500"/>
	<rect x="-0.5" y="381.6" fill="#87C34D" width="500" height="119"/>
</g>
<g id="OBJECTS">
	<path fill="#7DAD45" d="M412.8,439.7H87.2c-8.5,0-15.4-6.9-15.4-15.4v-2.5c0-8.5,6.9-15.4,15.4-15.4h325.5
		c8.5,0,15.4,6.9,15.4,15.4v2.5C428.1,432.8,421.3,439.7,412.8,439.7z"/>
	<g>
		<g>
			
				<ellipse transform="matrix(0.2366 -0.9716 0.9716 0.2366 127.29 417.5744)" fill="#E9F8FF" cx="329.4" cy="127.8" rx="67.5" ry="67.5"/>
			<circle fill="#6EA03A" cx="329.4" cy="127.8" r="63"/>
		</g>
		<g>
			<path fill="#ED3E48" d="M370.2,143.6c-6.5-4.2-19.4-6.5-28.1-6.1c-8.8,0.4-24.5,0-24.5,0s-6,0.9-12.5,3.1
				c-6.5,2.2-21.2,14.4-22.3,16.5c-1.1,2.1,4.3,12,7.3,13.1c3.1,1.2,20.8-10.2,20.8-10.2s-1,14.1-1.9,27.2
				c6.4,2.2,13.3,3.4,20.4,3.4c9.7,0,18.9-2.2,27.1-6.1c-1.5-11.2-3.3-24.5-4.6-28.9c0,0,15.9,8.8,21.5,5.4
				C379,157.9,376.7,147.9,370.2,143.6z"/>
			<path fill="#C13358" d="M374.8,148.7l-6.6,6.2l-21.1-4.5c0,0,1.6,17.5,0.6,37.6c3-0.9,6-2.1,8.8-3.4c-1.5-11.2-3.3-24.5-4.6-28.9
				c0,0,15.9,8.8,21.5,5.4C377.3,158.9,377.4,153.3,374.8,148.7z"/>
			<path fill="#3E4B75" d="M317.6,138.5c0,0,3.3,21.6,14,34.5c0,0,10.3-19.2,8.9-34.5H317.6z"/>
			<path fill="#FFFCDE" d="M327.5,132.3c0,0-9.7-1.9-12.3,5.2c-2.6,7.2,16.5,14.1,16.5,14.1s16.5-10.7,11.6-16.4
				C338.5,129.5,327.5,132.3,327.5,132.3z"/>
			<path fill="#B8344A" d="M335.6,83.1c0,0-10.6-8.9-24.2,1.1c-12,8.8-15.8,32.9,0,49.3c0,0,17-9.2,37.4-1.2c0,0,12-13.9,8.4-32.3
				C353.1,79.5,335.6,83.1,335.6,83.1z"/>
			<path fill="#962945" d="M348.8,132.3c0,0,0,0,0.1-0.1l-0.1-0.6c0,0,5.4-18-2.9-25.9c-6.8-6.5-7.2,11.9-7.2,11.9l-1.1-7l-28-3.4
				c0,0-4.9,9.3,1.8,26.3C311.3,133.5,328.4,124.3,348.8,132.3z"/>
			<path fill="#F2AC5F" d="M325.4,129.5c0,0-0.2,7.5,4.3,7.5c3.9,0,3.5-8.2,3.5-8.2L325.4,129.5z"/>
			<path fill="#FFC988" d="M309.6,107.2c0,0,2.3,25.1,19.8,25.1c13.4,0,15.9-15.6,16.4-22.9c0.1-2.2,0.1-3.7,0.1-3.7
				s-9.6-7.3-11.9-11.9C333.9,93.9,324,106.8,309.6,107.2z"/>
			<path fill="#576291" d="M344.5,109.6l-4.9,13.4c-0.3,0.7-0.1,1.5,0.3,2.1c0.3,0.4,0.6,0.6,1.1,0.8l4.3,1.7c0.6,0.2,1.2,0.2,1.7,0
				c0.5-0.2,1-0.7,1.2-1.3l5.1-13.2c0.2-0.4,0.2-0.8,0.1-1.2c-0.1-0.8-0.6-1.5-1.4-1.8l-4.5-1.9c-0.8-0.3-1.7-0.2-2.3,0.3
				C345,108.8,344.7,109.2,344.5,109.6z"/>
			<path fill="#3E4B75" d="M346.1,127.6l-4.3-1.7c-0.4-0.2-0.8-0.5-1.1-0.8c-0.4-0.6-0.6-1.4-0.3-2.1l4.9-13.4
				c0.2-0.4,0.4-0.8,0.8-1c0.3-0.2,0.6-0.4,1-0.4c-0.6-0.1-1.3,0-1.8,0.4c-0.3,0.3-0.6,0.6-0.8,1l-4.9,13.4
				c-0.3,0.7-0.1,1.5,0.3,2.1c0.3,0.4,0.6,0.6,1.1,0.8l4.3,1.7c0.4,0.2,0.8,0.2,1.2,0.1C346.4,127.7,346.2,127.7,346.1,127.6z"/>
			<ellipse fill="#382017" cx="320.1" cy="110.6" rx="1.6" ry="2.1"/>
			<ellipse fill="#382017" cx="335.8" cy="110.6" rx="1.6" ry="2.1"/>
			<path fill="#F2AC5F" d="M325.6,115.9c0,0-1.2,2.9,2.5,2.6C328.1,118.5,325.9,118.5,325.6,115.9z"/>
			<path fill="#962945" d="M334.6,121.3l-11-0.2c0,0,1.5,6.6,5.6,6.7C333.3,127.9,334.6,121.3,334.6,121.3z"/>
			<path fill="#ED3E48" d="M333.6,124.4c-0.9-0.1-1.9-0.2-2.9-0.2c-2,0-3.9,0.3-5.5,0.7c0.9,1.5,2.2,2.9,4.1,2.9
				C331.4,127.8,332.7,126.1,333.6,124.4z"/>
			<path fill="#FFFCDE" d="M324.1,121.1c0,0,0.4,0.9,0.7,1.3c0,0,3.9,0.4,8.8,0c0,0,0.2-0.5,0.4-1.1
				C333.9,121.3,326.9,121.1,324.1,121.1z"/>
			<path fill="#F2AC5F" d="M333.9,93.9c0,0,2.3,8.8,11.9,14.2l0-2.3C345.8,105.8,336.3,98.7,333.9,93.9z"/>
			<path fill="#FFC988" d="M351.8,130.1c4.8,8.2,12.7,28,16.9,29.5c6.5,2.4,11.1-1,10.2-6.1c-0.9-5.2-22.8-29.2-22.8-29.2
				s-0.1-7-6.2-10.9c-3.1-2-6.8,3.5-4.4,6C347.9,121.6,346.7,127.5,351.8,130.1z"/>
			<path fill="#3E4B75" d="M284.1,159.3l-5.2,3c0,0-15.2-9.4-20.4-10.6l-4.4,5.6c0,0,21.9,17.7,25.4,17.8c3.6,0,11.6-5.8,11.6-5.8
				S291,163.8,284.1,159.3z"/>
			<path fill="#3E4B75" d="M378.8,153.4c-0.9-5.2-22.8-29.2-22.8-29.2c0.2,4.9-4.2,5.9-4.2,5.9c4.8,8.2,12.7,28,16.9,29.5
				C375.1,161.9,379.7,158.6,378.8,153.4z"/>
			<path fill="#FFC988" d="M356,124.2c0,0-0.1-7-6.2-10.9c-3.1-2-6.8,3.5-4.4,6c2.4,2.4,1.3,8.3,6.3,10.9
				C351.8,130.1,356.2,129.1,356,124.2z"/>
			<path fill="#FFC988" d="M258.5,151.6c0,0-5-8.7-7.7-9.4c-2.7-0.7-0.4,4.4,1,6.3c0,0-11.8,3.2-12.1,7.1c-0.3,3.9,5.9,4.8,9.5,2.9
				c3.6-1.9,5.3-1.4,5.3-1.4S258.9,155.2,258.5,151.6z"/>
		</g>
	</g>
	<g>
		<rect x="226.1" y="292" fill="#FFFCDE" width="5.6" height="2.9"/>
		<rect x="235.9" y="292" fill="#FFFCDE" width="5.6" height="2.9"/>
		<rect x="245.6" y="292" fill="#FFFCDE" width="5.6" height="2.9"/>
		<rect x="255.4" y="292" fill="#FFFCDE" width="5.6" height="2.9"/>
		<rect x="265.1" y="292" fill="#FFFCDE" width="5.6" height="2.9"/>
		<rect x="274.9" y="292" fill="#FFFCDE" width="5.6" height="2.9"/>
		<rect x="222.6" y="293.6" fill="#FFFCDE" width="63.8" height="4.2"/>
		<rect x="222.6" y="293.6" fill="#E5DEAC" width="38.5" height="4.2"/>
	</g>
	<g>
		<g>
			<g>
				<rect x="174.5" y="356.1" fill="#FFFCDE" width="3.8" height="43.7"/>
				<rect x="170.7" y="356.1" fill="#E2E2E2" width="3.8" height="43.7"/>
			</g>
			<g>
				<path fill="#576291" d="M181.5,403.1h-7v-27.2h4.6c0.7,0,1.2,0.3,1.7,0.7c0.4,0.4,0.7,1,0.7,1.7V403.1z"/>
				<path fill="#3E4B75" d="M174.5,403.1h-7v-24.9c0-0.6,0.3-1.2,0.7-1.7c0.4-0.4,1-0.7,1.7-0.7h4.6V403.1z"/>
			</g>
			<path fill="#3E4B75" d="M187.2,362.2h-25.3c-1.4,0-2.7-0.5-3.7-1.4c-1.1-1-1.7-2.4-1.7-3.9v-7.7h36v7.7c0,1.2-0.4,2.3-1,3.2
				C190.5,361.3,188.9,362.2,187.2,362.2z"/>
			<path fill="#576291" d="M196.8,398.1h-22.3v5h22.3v5.6h5.3v-5.6v-1.5c0-0.7-0.2-1.4-0.6-1.9c-0.6-1-1.7-1.6-3-1.6H196.8z"/>
			<path fill="#3E4B75" d="M174.5,398.1h-22.3h-1.8c-0.9,0-1.7,0.3-2.3,0.8c-0.8,0.7-1.3,1.6-1.3,2.7v1.5v5.6h5.3v-5.6h22.3V398.1z"
				/>
			<g>
				<circle fill="#576291" cx="149.5" cy="413.8" r="6.7"/>
				<circle fill="#3E4B75" cx="149.5" cy="413.8" r="3.6"/>
			</g>
			<g>
				<circle fill="#3E4B75" cx="200.1" cy="413.8" r="6.7"/>
				<circle fill="#576291" cx="200.1" cy="413.8" r="3.6"/>
			</g>
		</g>
		<g>
			<path fill="#007070" d="M121.7,248.4h50c0,0,33.4,99.9,41,99.9c7.7,0-53.2-1.7-53.2-1.7l-19.2-19.2L121.7,248.4z"/>
			<g>
				<g>
					<g>
						<path fill="#007070" d="M228.5,354.9h-63.4c-19.3,0-35.5-13.8-38.6-32.8l-10.7-65.3c-0.6-3.9,2-7.6,5.9-8.3
							c3.9-0.6,7.6,2,8.3,5.9l10.7,65.3c2,12,12.2,20.7,24.4,20.7h63.4c4,0,7.2,3.2,7.2,7.2C235.7,351.6,232.5,354.9,228.5,354.9z"
							/>
					</g>
				</g>
			</g>
			<g>
				<g>
					<path fill="#00A9AD" d="M165.1,354.9c-19.3,0-35.5-13.8-38.6-32.8l-10.7-65.3c-0.6-3.9,2-7.6,5.9-8.3c3.9-0.6,7.6,2,8.3,5.9
						l10.7,65.3c2,12,12.2,20.7,24.4,20.7c4,0,7.2,3.2,7.2,7.2C172.3,351.6,169.1,354.9,165.1,354.9z"/>
				</g>
			</g>
		</g>
	</g>
	<g>
		<path fill="#576291" d="M214.5,291.7c0,0,3,1.2,4,6.1c0,0-21.5,0.6-21.5,0c0-0.6-0.7-7.1-0.7-7.1L214.5,291.7z"/>
		<g>
			<rect x="280.8" y="331" fill="#576291" width="8.3" height="94.2"/>
			<rect x="272.5" y="331" fill="#3E4B75" width="8.3" height="94.2"/>
		</g>
		<polygon fill="#402360" points="241.9,320 284.3,385.8 270.5,392.9 225.8,337.1 210.9,326 		"/>
		<path fill="#4E2870" d="M158.4,320c0,0-1.3,17.8,11.4,22.1c12.7,4.3,44.6,6.4,44.6,6.4l25.1,62.2l13.5-6.3
			c0,0-17.3-71.2-26.2-76.4s-38.8-8-38.8-8H158.4z"/>
		<path fill="#402360" d="M166.9,323l-2-3h-6.4c0,0-1.3,17.8,11.4,22.1c6.7,2.3,18.8,3.9,28.7,5C173.1,344.9,166.9,323,166.9,323z"
			/>
		<path fill="#ED3E48" d="M253.1,404.5c0,0,20.6,0.2,22.3,2.6c1.7,2.4,1.8,4.2,1.8,4.2s-32,11.3-33.9,11.8l-3.8-12.3L253.1,404.5z"
			/>
		<path fill="#C13358" d="M283.9,385.2c0,0,21.1-1.9,23,0.4c1.9,2.2,2.2,4,2.2,4s-31,14-32.8,14.6l-5.9-11.4L283.9,385.2z"/>
		<path fill="#ED3E48" d="M177.8,237.7l3.7-10.4c0,0,19.8,19,27.4,29.2c0,0,3-10.8,10-23.7l8.7,3.8c0,0-7.2,35.1-13.1,36.4
			c-12.4,2.8-32.6-24-34.9-27.3C177.3,242.5,177.8,237.7,177.8,237.7z"/>
		<path fill="#FFFCDE" d="M214.9,240.9c1.8,2.3,5,5,10.4,5.8c1.4-5.7,2.3-10,2.3-10l-8.7-3.8C217.4,235.6,216,238.4,214.9,240.9z"/>
		<path fill="#4E2870" d="M159.3,226.2l-5.9-1c0,0-6.3,3.1-12.4,10.1l5.3,17l8.6,44.6l30.4-5.8l7.2,10.5l4.3,1.6
			c0,0-4.3-56.5-15.3-75.9c0,0-4.4-2.8-8.5-3.7c-4-1-12.7-1-12.7-1L159.3,226.2z"/>
		<path fill="#402360" d="M149.8,268.1l3.6-23.8c0,0,10.6,25.1,18.9,47.2l-17.2-0.5L149.8,268.1z"/>
		<path fill="#ED3E48" d="M160.3,216.9c0,0-6.4-0.4-6.9,8.3c0,0,1.5,9,10.4,12.5c0,0,1.4-8.4,7-12.2c0,0,4.5,1.7,6.7,8.6
			c0,0,2.3-14.3-8.1-17.2H160.3z"/>
		<path fill="#F2AC5F" d="M158.4,201.9c0,0,0.4,5.6,0.4,18.1c0,0,4.6,6,12,5.5c0,0,0.2-2.7,0.7-5.2c0.6-3.2,1.3-6,1.3-6l-11.4-16.5
			L158.4,201.9z"/>
		<path fill="#B8344A" d="M165.9,158.4c0,0,12.7-16.3,27.4-8.1c11.3,6.3,12.4,21.9-1.4,29.5l-2.8,6.6l-38.6,12.9
			c0,0-15.7-19.3,1.6-30.7C152.1,168.6,159,160.1,165.9,158.4z"/>
		<path fill="#962945" d="M191.9,179.8c5.5-3,8.6-7.2,9.7-11.7c-5.9,11.6-23.9,9.4-23.9,9.4c6.5-4.8,7.3-9,7.3-9
			c-14.2,8.3-31.8,5.2-31.8,5.2l2.8-9.2c-2.4,2.2-4,4.2-4,4.2c-17.3,11.5-1.6,30.7-1.6,30.7l38.6-12.9L191.9,179.8z"/>
		<path fill="#FFB533" d="M151.1,195.2c0,0-4.3-17.7,0.5-27.9c4.8-10.2,14.3-9,14.3-9s-13.8,3.7-9.1,34.1L151.1,195.2z"/>
		<path fill="#FFC988" d="M159.3,182c0,0,21.4,2.9,32.7-1.9c0,0,4.1,20.5-1.5,30.8c-5.8,10.4-27.1,11.9-32-11.8
			C158.4,199,161.4,191.5,159.3,182z"/>
		<path fill="#4F3666" d="M177.1,211l-2.3-0.3c-0.6-0.1-1.2,0.3-1.5,0.8l-3.4-0.5c-4.5-0.7-8.5-3.2-10.9-7c-2.5-3.9-3-4.6-3-4.8
			l-0.4,0.2l-0.2-0.4c-0.4,0.3-0.4,0.3,3,5.5c2.6,4,6.8,6.7,11.5,7.4l3.4,0.5c0.1,0.6,0.6,1.2,1.3,1.3l2.3,0.3
			c0.8,0.1,1.6-0.5,1.7-1.3v0C178.5,211.9,177.9,211.1,177.1,211z"/>
		<path fill="#382017" d="M174,193.2c0,1.4-0.9,2.6-2,2.6c-1.1,0-2-1.2-2-2.6c0-1.4,0.9-2.6,2-2.6C173.1,190.6,174,191.8,174,193.2z
			"/>
		<ellipse fill="#382017" cx="186.1" cy="190.9" rx="2" ry="2.6"/>
		<ellipse fill="#ED3E48" cx="155.8" cy="198.2" rx="6.7" ry="7.7"/>
		<ellipse fill="#4F3666" cx="154.9" cy="198.2" rx="3.3" ry="3.7"/>
		<path fill="#F2AC5F" d="M183.3,198.2c0,0,2.8,3.7-1.4,4.1C181.9,202.3,183.9,200.2,183.3,198.2z"/>
		<path fill="#ED3E48" d="M155.1,253.5c-0.7-3-3-16.9-8.6-18.6c-5.9-1.7-8.6,1.5-8.4,11.8c0.2,10.3,8.9,48.8,14.3,51.8
			c5.4,3,39.7,0.4,39.7,0.4l-0.5-11.9c0,0-23.5-1.4-30.2-1.6C161.9,286.6,158.7,269.4,155.1,253.5z"/>
		<path fill="#FFFCDE" d="M191.6,287.1c0,0-4.3-0.3-9.7-0.6c-1.9,3.1-3.5,7.8-1.5,13.1c6.6-0.3,11.8-0.7,11.8-0.7L191.6,287.1z"/>
		<path fill="#FFC988" d="M191.6,287.1c0.4-0.4,7.5-3.3,12.5-2.9c5,0.4,12.3,6,10.4,7.5c-1.9,1.6-7.2,0-11.3,2.1
			c-4.1,2.1-6.3,5.4-11.1,5.2C192.1,299,188.8,290.6,191.6,287.1z"/>
		<path fill="#FFC988" d="M227.6,236.6c0,0,5.5-7.7,9.9-10.4c4.3-2.7,6.5-9.3,1.8-10.4c-4.8-1.1-15.7,7.8-15.7,7.8
			c0.3-5.1-0.8-9.5-3.1-7.1c-2.3,2.4-1.6,16.4-1.6,16.4S220.7,237.1,227.6,236.6z"/>
		<path fill="#4E2870" d="M276.3,408.5l-33.7,12l0.8,2.6c1.8-0.5,33.9-11.8,33.9-11.8S277.2,410.1,276.3,408.5z"/>
		<path fill="#4E2870" d="M276.4,404.2c1.8-0.6,32.8-14.6,32.8-14.6s-0.2-1.1-1.1-2.5c-9.5,4.2-28.2,12.5-33,14.5L276.4,404.2z"/>
		<path fill="#962945" d="M175.9,205.9l11.1-1.5c0,0-1.8,7.1-5.8,7.9C177.2,213.1,175.9,205.9,175.9,205.9z"/>
		<path fill="#ED3E48" d="M180.3,208.4c-1.2,0-2.4,0.1-3.6,0.4c0.8,1.9,2.2,4,4.5,3.5c1.6-0.3,2.9-1.7,3.8-3.3
			C183.6,208.6,182,208.4,180.3,208.4z"/>
		<path fill="#FFFCDE" d="M186.2,204.5l-0.5,1.4c0,0-5.1,1.2-8.8,1.1l-0.6-1.2C176.4,205.8,181.1,205,186.2,204.5z"/>
		<path fill="#C13358" d="M185.1,298.5c-13.7,0-29.2-6.5-29.2-6.5c-13.5-22.8-14.8-56.4-14.8-56.7c-2.1,1.5-3,5.1-2.9,11.4
			c0.2,10.3,8.9,48.8,14.3,51.8c4.3,2.4,27,1.2,36,0.7C187.7,298.8,186.6,298.5,185.1,298.5z"/>
	</g>
	<g>
		<rect x="92.1" y="297.8" fill="#E87A1F" width="315.8" height="10.9"/>
		<rect x="92.1" y="297.8" fill="#FFB533" width="126.4" height="10.9"/>
		<polygon fill="#3E4B75" points="100.1,308.6 100.1,425.2 108.4,425.2 108.4,331 210.2,331 210.2,425.2 218.5,425.2 218.5,308.6 		
			"/>
		<polygon fill="#576291" points="218.5,308.6 218.5,425.2 226.8,425.2 226.8,331 391.1,331 391.1,425.2 399.5,425.2 399.5,308.6 		
			"/>
		<rect x="108.3" y="331" fill="#576291" width="8.3" height="94.2"/>
		<rect x="382.9" y="331" fill="#3E4B75" width="8.3" height="94.2"/>
	</g>
	<g>
		<path fill="#00A9AD" d="M385.9,207.4c-0.4-0.6-1-1.1-1.8-1.4l0,0c-0.5-0.1-1-0.1-1.4,0H276.4l-18.8,73.5h107.6c1,0.3,2,0,2.8-0.7
			c0.4-0.4,0.8-0.9,0.9-1.5l17.3-67.6C386.5,208.9,386.3,208,385.9,207.4z"/>
		<path fill="#009393" d="M350.8,292.9l-5.9-41.8c-0.2-1.5-1.6-2.5-3.1-2.3h-34.4l6.3,44.1H350.8z"/>
		<path fill="#007070" d="M310.9,292.9h5.5l-5.9-41.8c-0.2-1.5-1.6-2.5-3.1-2.3c-1.5,0.2-2.5,1.6-2.3,3.1L310.9,292.9z"/>
		<path fill="#007070" d="M257.6,279.5L257.6,279.5c-0.7-0.2-1.2-0.5-1.6-1c-0.6-0.7-0.8-1.7-0.6-2.7l17.3-67.6
			c0.2-0.8,0.7-1.5,1.4-1.9c0.7-0.4,1.5-0.5,2.3-0.3l0,0c0.8,0.2,1.4,0.7,1.8,1.4c0.4,0.7,0.6,1.5,0.4,2.3l-17.3,67.6
			c-0.2,0.6-0.5,1.1-0.9,1.5C259.7,279.5,258.7,279.8,257.6,279.5z"/>
		<path fill="#00A9AD" d="M368.6,297.8h-88.4c-1.5,0-2.7-1.2-2.7-2.7v-0.4c0-1.5,1.2-2.7,2.7-2.7h88.4c1.5,0,2.7,1.2,2.7,2.7v0.4
			C371.3,296.6,370.1,297.8,368.6,297.8z"/>
		<path fill="#007070" d="M329.8,297.8h-49.7c-1.5,0-2.7-1.2-2.7-2.7v-0.4c0-1.5,1.2-2.7,2.7-2.7h49.7c1.5,0,2.7,1.2,2.7,2.7v0.4
			C332.5,296.6,331.3,297.8,329.8,297.8z"/>
		<g>
			<g>
				<polygon fill="#009393" points="371.6,224.4 367.3,241.3 368.5,241.3 372.9,224.4 				"/>
				<polygon fill="#009393" points="368.1,224.4 363.7,241.3 365,241.3 369.3,224.4 				"/>
				<polygon fill="#009393" points="364.5,224.4 360.2,241.3 361.5,241.3 365.8,224.4 				"/>
				<polygon fill="#009393" points="361,224.4 356.7,241.3 357.9,241.3 362.3,224.4 				"/>
				<polygon fill="#009393" points="357.5,224.4 353.1,241.3 354.4,241.3 358.7,224.4 				"/>
			</g>
			<g>
				<polygon fill="#009393" points="301.2,224.4 296.9,241.3 298.2,241.3 302.5,224.4 				"/>
				<polygon fill="#009393" points="297.7,224.4 293.4,241.3 294.6,241.3 299,224.4 				"/>
				<polygon fill="#009393" points="294.2,224.4 289.8,241.3 291.1,241.3 295.4,224.4 				"/>
				<polygon fill="#009393" points="290.7,224.4 286.3,241.3 287.6,241.3 291.9,224.4 				"/>
				<polygon fill="#009393" points="287.1,224.4 282.8,241.3 284.1,241.3 288.4,224.4 				"/>
			</g>
		</g>
	</g>
	<g>
		<g>
			<path fill="#FFFFFF" d="M117.3,156.2c4.8-2.4,7.8-6.3,7.8-10.7c0-7.3-8.7-13.3-19.4-13.3c-10.7,0-19.4,5.9-19.4,13.3
				c0,7.3,8.7,13.3,19.4,13.3c2,0,3.8-0.2,5.6-0.6c2.2,2.6,6.1,5.3,12.6,5.5C123.9,163.7,119.9,160.9,117.3,156.2z"/>
			<g>
				<path fill="#66D7FF" d="M97.7,145.3c0,0.8-0.7,1.4-1.5,1.4c-0.8,0-1.5-0.6-1.5-1.4c0-0.8,0.7-1.4,1.5-1.4
					C97,143.9,97.7,144.5,97.7,145.3z"/>
				<path fill="#66D7FF" d="M107.1,145.3c0,0.8-0.7,1.4-1.5,1.4c-0.8,0-1.5-0.6-1.5-1.4c0-0.8,0.7-1.4,1.5-1.4
					C106.5,143.9,107.1,144.5,107.1,145.3z"/>
				<path fill="#66D7FF" d="M116.6,145.3c0,0.8-0.7,1.4-1.5,1.4c-0.8,0-1.5-0.6-1.5-1.4c0-0.8,0.7-1.4,1.5-1.4
					C115.9,143.9,116.6,144.5,116.6,145.3z"/>
			</g>
		</g>
		<g>
			<path fill="#FFFFFF" d="M233.7,177.4c-10.7,0-19.4,6.1-19.4,13.5c0,2.3,0.8,4.5,2.3,6.3c-2.6,4.4-6.2,7-6.2,7
				c4.6-0.1,7.9-1.6,10.3-3.3c3.5,2.2,8.1,3.6,13.1,3.6c10.7,0,19.4-6.1,19.4-13.5S244.4,177.4,233.7,177.4z"/>
			<polygon fill="#87C34D" points="226.3,188.9 233.6,197.4 244.3,183.9 233.2,192.3 			"/>
		</g>
		<g>
			<path fill="#FFFFFF" d="M256.9,77.2c4-2.5,6.4-6.1,6.4-10.1c0-7.5-8.7-13.5-19.4-13.5c-10.7,0-19.4,6.1-19.4,13.5
				c0,7.5,8.7,13.5,19.4,13.5c2.8,0,5.5-0.4,7.9-1.2c2.3,1.9,5.7,3.5,10.6,3.6C262.5,83.1,259.4,81,256.9,77.2z"/>
			<g>
				<path fill="#87C34D" d="M243.4,61.5c2,0,3.3,0.9,3.3,2.7c0,2.4-2.4,2.6-2.4,4.5h-1.8c0-2.4,2-2.5,2-4.2c0-0.7-0.5-1.1-1.3-1.1
					c-0.9,0-1.3,0.5-1.4,1.5l-1.8,0C240,62.7,241.3,61.5,243.4,61.5z M244.6,71.2c0,0.7-0.5,1.2-1.2,1.2c-0.7,0-1.2-0.5-1.2-1.2
					c0-0.7,0.5-1.2,1.2-1.2C244.1,70,244.6,70.5,244.6,71.2z"/>
			</g>
		</g>
	</g>
	<g>
		<g>
			<g>
				<path fill="#E9F8FF" d="M412.6,198c-0.1,0-0.3-0.1-0.3-0.3v-3.1c0-0.1,0.1-0.3,0.3-0.3c0.1,0,0.3,0.1,0.3,0.3v3.1
					C412.8,197.9,412.7,198,412.6,198z"/>
			</g>
			<g>
				<path fill="#E9F8FF" d="M412.6,203.6c-0.1,0-0.3-0.1-0.3-0.3v-3.1c0-0.1,0.1-0.3,0.3-0.3c0.1,0,0.3,0.1,0.3,0.3v3.1
					C412.8,203.5,412.7,203.6,412.6,203.6z"/>
			</g>
			<g>
				<path fill="#E9F8FF" d="M416.9,199.3h-3.1c-0.1,0-0.3-0.1-0.3-0.3c0-0.1,0.1-0.3,0.3-0.3h3.1c0.1,0,0.3,0.1,0.3,0.3
					C417.2,199.2,417.1,199.3,416.9,199.3z"/>
			</g>
			<g>
				<path fill="#E9F8FF" d="M411.3,199.3h-3.1c-0.1,0-0.3-0.1-0.3-0.3c0-0.1,0.1-0.3,0.3-0.3h3.1c0.1,0,0.3,0.1,0.3,0.3
					C411.6,199.2,411.4,199.3,411.3,199.3z"/>
			</g>
		</g>
		<g>
			<g>
				<path fill="#E9F8FF" d="M86.3,343.4c-0.1,0-0.3-0.1-0.3-0.3v-3.1c0-0.1,0.1-0.3,0.3-0.3c0.1,0,0.3,0.1,0.3,0.3v3.1
					C86.5,343.3,86.4,343.4,86.3,343.4z"/>
			</g>
			<g>
				<path fill="#E9F8FF" d="M86.3,349.1c-0.1,0-0.3-0.1-0.3-0.3v-3.1c0-0.1,0.1-0.3,0.3-0.3c0.1,0,0.3,0.1,0.3,0.3v3.1
					C86.5,349,86.4,349.1,86.3,349.1z"/>
			</g>
			<g>
				<path fill="#E9F8FF" d="M90.6,344.7h-3.1c-0.1,0-0.3-0.1-0.3-0.3c0-0.1,0.1-0.3,0.3-0.3h3.1c0.1,0,0.3,0.1,0.3,0.3
					C90.9,344.6,90.8,344.7,90.6,344.7z"/>
			</g>
			<g>
				<path fill="#E9F8FF" d="M85,344.7h-3.1c-0.1,0-0.3-0.1-0.3-0.3c0-0.1,0.1-0.3,0.3-0.3H85c0.1,0,0.3,0.1,0.3,0.3
					C85.3,344.6,85.1,344.7,85,344.7z"/>
			</g>
		</g>
		<g>
			<g>
				<path fill="#E9F8FF" d="M391.2,275.1c-0.1,0-0.3-0.1-0.3-0.3v-3.1c0-0.1,0.1-0.3,0.3-0.3c0.1,0,0.3,0.1,0.3,0.3v3.1
					C391.4,275,391.3,275.1,391.2,275.1z"/>
			</g>
			<g>
				<path fill="#E9F8FF" d="M391.2,280.7c-0.1,0-0.3-0.1-0.3-0.3v-3.1c0-0.1,0.1-0.3,0.3-0.3c0.1,0,0.3,0.1,0.3,0.3v3.1
					C391.4,280.6,391.3,280.7,391.2,280.7z"/>
			</g>
			<g>
				<path fill="#E9F8FF" d="M395.6,276.3h-3.1c-0.1,0-0.3-0.1-0.3-0.3c0-0.1,0.1-0.3,0.3-0.3h3.1c0.1,0,0.3,0.1,0.3,0.3
					C395.8,276.2,395.7,276.3,395.6,276.3z"/>
			</g>
			<g>
				<path fill="#E9F8FF" d="M389.9,276.3h-3.1c-0.1,0-0.3-0.1-0.3-0.3c0-0.1,0.1-0.3,0.3-0.3h3.1c0.1,0,0.3,0.1,0.3,0.3
					C390.2,276.2,390.1,276.3,389.9,276.3z"/>
			</g>
		</g>
		<g>
			<g>
				<path fill="#E9F8FF" d="M185.1,100c-0.1,0-0.3-0.1-0.3-0.3v-3.1c0-0.1,0.1-0.3,0.3-0.3c0.1,0,0.3,0.1,0.3,0.3v3.1
					C185.3,99.9,185.2,100,185.1,100z"/>
			</g>
			<g>
				<path fill="#E9F8FF" d="M185.1,105.6c-0.1,0-0.3-0.1-0.3-0.3v-3.1c0-0.1,0.1-0.3,0.3-0.3c0.1,0,0.3,0.1,0.3,0.3v3.1
					C185.3,105.5,185.2,105.6,185.1,105.6z"/>
			</g>
			<g>
				<path fill="#E9F8FF" d="M189.4,101.3h-3.1c-0.1,0-0.3-0.1-0.3-0.3c0-0.1,0.1-0.3,0.3-0.3h3.1c0.1,0,0.3,0.1,0.3,0.3
					C189.7,101.1,189.6,101.3,189.4,101.3z"/>
			</g>
			<g>
				<path fill="#E9F8FF" d="M183.8,101.3h-3.1c-0.1,0-0.3-0.1-0.3-0.3c0-0.1,0.1-0.3,0.3-0.3h3.1c0.1,0,0.3,0.1,0.3,0.3
					C184.1,101.1,184,101.3,183.8,101.3z"/>
			</g>
		</g>
		<g>
			<g>
				<path fill="#E9F8FF" d="M81.6,218.7c-0.1,0-0.3-0.1-0.3-0.3v-3.1c0-0.1,0.1-0.3,0.3-0.3c0.1,0,0.3,0.1,0.3,0.3v3.1
					C81.9,218.6,81.8,218.7,81.6,218.7z"/>
			</g>
			<g>
				<path fill="#E9F8FF" d="M81.6,224.4c-0.1,0-0.3-0.1-0.3-0.3V221c0-0.1,0.1-0.3,0.3-0.3c0.1,0,0.3,0.1,0.3,0.3v3.1
					C81.9,224.3,81.8,224.4,81.6,224.4z"/>
			</g>
			<g>
				<path fill="#E9F8FF" d="M86,220h-3.1c-0.1,0-0.3-0.1-0.3-0.3c0-0.1,0.1-0.3,0.3-0.3H86c0.1,0,0.3,0.1,0.3,0.3
					C86.3,219.9,86.1,220,86,220z"/>
			</g>
			<g>
				<path fill="#E9F8FF" d="M80.4,220h-3.1c-0.1,0-0.3-0.1-0.3-0.3c0-0.1,0.1-0.3,0.3-0.3h3.1c0.1,0,0.3,0.1,0.3,0.3
					C80.6,219.9,80.5,220,80.4,220z"/>
			</g>
		</g>
		<g>
			<g>
				<path fill="#E9F8FF" d="M234.4,272.2c-0.1,0-0.3-0.1-0.3-0.3v-3.1c0-0.1,0.1-0.3,0.3-0.3s0.3,0.1,0.3,0.3v3.1
					C234.7,272.1,234.6,272.2,234.4,272.2z"/>
			</g>
			<g>
				<path fill="#E9F8FF" d="M234.4,277.9c-0.1,0-0.3-0.1-0.3-0.3v-3.1c0-0.1,0.1-0.3,0.3-0.3s0.3,0.1,0.3,0.3v3.1
					C234.7,277.8,234.6,277.9,234.4,277.9z"/>
			</g>
			<g>
				<path fill="#E9F8FF" d="M238.8,273.5h-3.1c-0.1,0-0.3-0.1-0.3-0.3c0-0.1,0.1-0.3,0.3-0.3h3.1c0.1,0,0.3,0.1,0.3,0.3
					C239.1,273.4,239,273.5,238.8,273.5z"/>
			</g>
			<g>
				<path fill="#E9F8FF" d="M233.2,273.5h-3.1c-0.1,0-0.3-0.1-0.3-0.3c0-0.1,0.1-0.3,0.3-0.3h3.1c0.1,0,0.3,0.1,0.3,0.3
					C233.4,273.4,233.3,273.5,233.2,273.5z"/>
			</g>
		</g>
	</g>
</g>
<g id="DESIGNED_BY_FREEPIK">
</g>
</svg>
