<?xml version="1.0" encoding="utf-8"?>
<!-- Generator: Adobe Illustrator 22.0.1, SVG Export Plug-In . SVG Version: 6.00 Build 0)  -->
<svg version="1.1" xmlns="http://www.w3.org/2000/svg" xmlns:xlink="http://www.w3.org/1999/xlink" x="0px" y="0px"
	 viewBox="0 0 500 500" enable-background="new 0 0 500 500" xml:space="preserve">
<g id="Background_Simple">
	<g>
		<g>
			<path fill="#92E3A9" d="M92.2,138c70.1-79.7,190.4-93,244-67.4c22.4,10.7,41.4,23.8,57.2,38.2c2.2,2,4.4,4.1,6.5,6.2
				c6.8,6.7,13,13.6,18.5,20.7c7.1,9,13.3,18.3,18.5,27.5c8.4,14.8,14.5,29.6,18.5,43.5c3.2,10.9,5,21.2,5.8,30.5
				c1.5,19.4,0.2,39-2.4,58.3c-0.2,1.8-0.5,3.7-0.8,5.5c-0.1,0.5-0.1,1-0.2,1.5c-2.9,19.2-6.9,38.5-16,55.2
				c-9.9,18.2-44.4,69-81.9,70.3c-19.4,0.7-36.6-12-54.2-21c-28-14.3-59.7-17.1-90.6-17.9c-30.9-0.8-62.2,0.1-92.3-7.6
				c-30.1-7.6-59.6-25.3-75-54.5c-5.2-9.9-9.2-24.3-9.2-35.7c0-33.8,5.5-63.4,15.2-89.1c3.1-8.4,6.7-16.4,10.7-23.9
				c6.1-11.7,13.2-22.4,20.9-32.2L92.2,138z"/>
		</g>
		<g opacity="0.7">
			<path fill="#BCFC72" d="M92.2,138c70.1-79.7,190.4-93,244-67.4c22.4,10.7,41.4,23.8,57.2,38.2c2.2,2,4.4,4.1,6.5,6.2
				c6.8,6.7,13,13.6,18.5,20.7c7.1,9,13.3,18.3,18.5,27.5c8.4,14.8,14.5,29.6,18.5,43.5c3.2,10.9,5,21.2,5.8,30.5
				c1.5,19.4,0.2,39-2.4,58.3c-0.2,1.8-0.5,3.7-0.8,5.5c-0.1,0.5-0.1,1-0.2,1.5c-2.9,19.2-6.9,38.5-16,55.2
				c-9.9,18.2-44.4,69-81.9,70.3c-19.4,0.7-36.6-12-54.2-21c-28-14.3-59.7-17.1-90.6-17.9c-30.9-0.8-62.2,0.1-92.3-7.6
				c-30.1-7.6-59.6-25.3-75-54.5c-5.2-9.9-9.2-24.3-9.2-35.7c0-33.8,5.5-63.4,15.2-89.1c3.1-8.4,6.7-16.4,10.7-23.9
				c6.1-11.7,13.2-22.4,20.9-32.2L92.2,138z"/>
		</g>
	</g>
</g>
<g id="Floor">
	
		<line fill="none" stroke="#263238" stroke-linecap="round" stroke-linejoin="round" stroke-miterlimit="10" x1="38.7" y1="426.8" x2="468.7" y2="426.8"/>
</g>
<g id="Plants">
	<g>
		<g>
			<g>
				<g>
					<g>
						<path fill="none" stroke="#263238" stroke-linecap="round" stroke-linejoin="round" stroke-miterlimit="10" d="M369.7,281.8
							C369.6,281.8,369.6,281.8,369.7,281.8c0,0.1,0,0.1,0,0.1c0,0.2,0.1,0.4,0.1,0.6c0.3,1.6,0.7,3.8,1,6.6
							c0.2,1.9,0.3,4.1,0.4,6.5c0.1,4.7-0.2,10.3-1.2,16.7c-0.2,1.5-0.5,3-0.8,4.5c-0.5,2.5-1.1,5.2-1.8,8c-0.3,1.3-0.7,2.6-1.1,3.9
							c-0.2,0.5-0.3,1.1-0.5,1.6c-0.2,0.7-0.4,1.3-0.5,2c0,0,0,0,0,0c-1.2,4.4-2.1,9-2.7,13.5c-0.9,5.7-1.4,11.3-1.7,16.6
							c-0.4,7.1-0.4,13.6-0.2,19c0,0.1,0,0.2,0,0.3c0.2,5.5,0.5,9.8,0.8,12.2c0.1,1.4,0.2,2.2,0.2,2.3"/>
					</g>
					<g>
						<g>
							<path fill="#FFFFFF" stroke="#263238" stroke-linecap="round" stroke-linejoin="round" stroke-miterlimit="10" d="
								M369.7,281.9C369.7,281.9,369.7,281.9,369.7,281.9C369.7,281.9,369.7,281.9,369.7,281.9c-0.8-0.7-1.5-1.2-2.4-1.7
								c-0.9-0.5-1.9-0.9-2.9-1.1"/>
						</g>
					</g>
					<g>
						
							<line fill="none" stroke="#263238" stroke-linecap="round" stroke-linejoin="round" stroke-miterlimit="10" x1="370.8" y1="289.1" x2="373.5" y2="286.7"/>
					</g>
					<g>
						<path fill="none" stroke="#263238" stroke-linecap="round" stroke-linejoin="round" stroke-miterlimit="10" d="M367.4,324.9
							L367.4,324.9c-0.1-0.7-0.3-1.4-0.6-2.1c-0.4-1-0.9-1.9-1.6-2.7c-0.5-0.6-1.1-1.2-1.7-1.7"/>
					</g>
					<g>
						<path fill="none" stroke="#263238" stroke-linecap="round" stroke-linejoin="round" stroke-miterlimit="10" d="M365.3,332.4
							c0.7-1.9,2.3-3.4,4.2-4.1"/>
					</g>
					<g>
						<path fill="#FFFFFF" stroke="#263238" stroke-linecap="round" stroke-linejoin="round" stroke-miterlimit="10" d="
							M360.7,369.6c0.9-1.1,1.6-5.2,1.9-7.4c0.1-0.5,0.2-1,0.2-1.3"/>
					</g>
					<g>
						<path fill="#FFFFFF" stroke="#263238" stroke-linecap="round" stroke-linejoin="round" stroke-miterlimit="10" d="M353.8,377
							c0.3,0,0.6,0,0.9,0c2.6,0.2,5,2,6,4.5"/>
					</g>
				</g>
				<path fill="none" stroke="#263238" stroke-linecap="round" stroke-linejoin="round" stroke-miterlimit="10" d="M369.2,317
					c0,0,0.5-16.2-8.4-22.1"/>
				<g>
					<path fill="#87C34D" d="M370,351.8c1.2,3.8-7,11-7,11s-10.8-1.4-12-5.1c-1.2-3.8,1.6-10,6.8-11.6
						C363.1,344.4,368.9,348,370,351.8z"/>
					<path fill="#87C34D" d="M379.1,305.9c-1,4-8.8,6.9-8.8,6.9s-5.4-6.2-4.4-10.2c1-4,5.3-8.4,8.9-7.5
						C378.5,295.9,380.1,301.8,379.1,305.9z"/>
					<path fill="#87C34D" d="M348.1,365.9c4.9,1.9,7.8,10.5,7.8,10.5s-8,4.3-12.8,2.4c-4.9-1.9-10-7.2-8.6-10.8
						C335.9,364.5,343.2,364,348.1,365.9z"/>
					<path fill="#87C34D" d="M358.7,318.7c1,0.8,2.1,1.5,3.3,1.9c1.2,0.3,2.7,0.1,3.5-0.8c1-1.2,0.8-3,0.1-4.5
						c-1.3-2.9-6.1-7.7-9.7-6.3C350.6,311,356.4,317,358.7,318.7z"/>
					<path fill="#87C34D" d="M369.6,326c-0.7,0.9-1.4,1.9-1.1,3c0.3,0.9,1.5,1.3,2.4,1.2c1-0.1,1.8-0.7,2.6-1.3
						c1.9-1.3,5.7-4,3.3-6.6C374.3,319.7,371,324.2,369.6,326z"/>
					<path fill="#87C34D" d="M353.9,289.7c-0.8,0.1-1.6,0.6-1.7,1.4c-0.2,0.9,0.6,1.7,1.4,2.3c1.9,1.4,7.4,5.3,8.7,1.6
						C363.4,291.5,356.4,289.5,353.9,289.7z"/>
					<g>
						<path fill="#87C34D" d="M364.2,277.5c-1.2,0.1-2.3-0.3-3.5-0.2c-1.2,0.1-2.4,1-2.2,2.1c0.2,1,1.5,1.4,2.6,1.5
							c1.8,0.1,3.7,0,5.4-0.4c0.4-0.1,0.9-0.2,1.1-0.6c0.5-0.7-0.3-1.6-1.1-1.9C365.9,277.8,365,277.9,364.2,277.5L364.2,277.5z"/>
					</g>
					<g>
						<path fill="#87C34D" d="M375.5,285.4c1.2,0,2.3-0.5,3.4-0.5c1.2,0,2.5,0.8,2.3,2c-0.2,1.1-1.4,1.5-2.5,1.6
							c-1.8,0.2-3.7,0.2-5.5,0c-0.4-0.1-0.9-0.1-1.1-0.5c-0.5-0.7,0.2-1.6,0.9-1.9C373.9,285.8,374.8,285.9,375.5,285.4L375.5,285.4
							z"/>
					</g>
					<g>
						<path fill="#87C34D" d="M374.3,370.6c0.3-0.2,0.6-0.5,1-0.5c0.5,0,0.9,0.5,1,1c0.1,0.5,0,1-0.2,1.5
							c-0.8,2.6-9.6,21.6-11.6,18.2c-1.2-2,1.7-8.7,2.6-10.6C368.8,376.5,371.3,373.2,374.3,370.6z"/>
					</g>
				</g>
			</g>
			<path fill="none" stroke="#263238" stroke-linecap="round" stroke-linejoin="round" stroke-miterlimit="10" d="M370,283
				c0,0-0.5-4.6,0.6-5"/>
			<g>
				<path fill="#87C34D" d="M369.1,278.2c0.7-1.6,1.5-3.2,2.8-4.2c1.4-1,3.6-1.1,4.6,0.3c1.1,1.6,0,3.9-1.7,4.7
					c-1.7,0.8-3.8,0.6-5.7,0.3c0-0.3,0-0.6,0-0.8L369.1,278.2z"/>
			</g>
		</g>
		<g>
			<path fill="#FFFFFF" stroke="#263238" stroke-linecap="round" stroke-linejoin="round" stroke-miterlimit="10" d="M373.8,426.6
				L373.8,426.6c-9.4,1.6-19.1,1.6-28.5,0l0,0l-11.1-32.7h50.6L373.8,426.6z"/>
		</g>
	</g>
	<g>
		<g>
			<g>
				<g>
					<g>
						<path fill="none" stroke="#263238" stroke-linecap="round" stroke-linejoin="round" stroke-miterlimit="10" d="M180.5,190.4
							C180.5,190.4,180.5,190.5,180.5,190.4c0,0.1,0,0.1,0,0.1c0,0.2,0.1,0.4,0.1,0.6c0.3,1.6,0.7,3.8,1,6.6
							c0.2,1.9,0.3,4.1,0.4,6.5c0.1,4.7-0.2,10.3-1.2,16.7c-0.2,1.5-0.5,3-0.8,4.5c-0.5,2.5-1.1,5.2-1.8,8c-0.3,1.3-0.7,2.6-1.1,3.9
							c-0.2,0.5-0.3,1.1-0.5,1.6c-0.2,0.7-0.4,1.3-0.5,2c0,0,0,0,0,0c-1.2,4.4-2.1,9-2.7,13.5c-0.9,5.7-1.4,11.3-1.7,16.6
							c-0.4,7.1-0.4,13.6-0.2,19c0,0.1,0,0.2,0,0.3c0.2,5.5,0.5,9.8,0.8,12.2c0.1,1.4,0.2,2.2,0.2,2.3"/>
					</g>
					<g>
						<g>
							<path fill="#FFFFFF" stroke="#263238" stroke-linecap="round" stroke-linejoin="round" stroke-miterlimit="10" d="
								M180.6,190.6C180.6,190.6,180.6,190.6,180.6,190.6C180.5,190.5,180.5,190.5,180.6,190.6c-0.8-0.7-1.5-1.2-2.4-1.7
								c-0.9-0.5-1.9-0.9-2.9-1.1"/>
						</g>
					</g>
					<g>
						
							<line fill="none" stroke="#263238" stroke-linecap="round" stroke-linejoin="round" stroke-miterlimit="10" x1="181.7" y1="197.8" x2="184.4" y2="195.4"/>
					</g>
					<g>
						<path fill="none" stroke="#263238" stroke-linecap="round" stroke-linejoin="round" stroke-miterlimit="10" d="M178.3,233.5
							L178.3,233.5c-0.1-0.7-0.3-1.4-0.6-2.1c-0.4-1-0.9-1.9-1.6-2.7c-0.5-0.6-1.1-1.2-1.7-1.7"/>
					</g>
					<g>
						<path fill="none" stroke="#263238" stroke-linecap="round" stroke-linejoin="round" stroke-miterlimit="10" d="M176.2,241
							c0.7-1.9,2.3-3.4,4.2-4.1"/>
					</g>
					<g>
						<path fill="#FFFFFF" stroke="#263238" stroke-linecap="round" stroke-linejoin="round" stroke-miterlimit="10" d="
							M171.6,278.2c0.9-1.1,1.6-5.2,1.9-7.4c0.1-0.5,0.2-1,0.2-1.3"/>
					</g>
					<g>
						<path fill="#FFFFFF" stroke="#263238" stroke-linecap="round" stroke-linejoin="round" stroke-miterlimit="10" d="
							M164.7,285.6c0.3,0,0.6,0,0.9,0c2.6,0.2,5,2,6,4.5"/>
					</g>
				</g>
				<path fill="none" stroke="#263238" stroke-linecap="round" stroke-linejoin="round" stroke-miterlimit="10" d="M180.1,225.6
					c0,0,0.5-16.2-8.4-22.1"/>
				<g>
					<path fill="#87C34D" d="M180.9,260.5c1.2,3.8-7,11-7,11s-10.8-1.4-12-5.1c-1.2-3.8,1.6-10,6.8-11.6
						C174,253.1,179.8,256.7,180.9,260.5z"/>
					<path fill="#87C34D" d="M190,214.5c-1,4-8.8,6.9-8.8,6.9s-5.4-6.2-4.4-10.2c1-4,5.3-8.4,8.9-7.5
						C189.4,204.6,191,210.5,190,214.5z"/>
					<path fill="#87C34D" d="M159,274.6c4.9,1.9,7.8,10.5,7.8,10.5s-8,4.3-12.8,2.4c-4.9-1.9-10-7.2-8.6-10.8
						C146.8,273.1,154.1,272.7,159,274.6z"/>
					<path fill="#87C34D" d="M169.6,227.4c1,0.8,2.1,1.5,3.3,1.9c1.2,0.3,2.7,0.1,3.5-0.8c1-1.2,0.8-3,0.1-4.5
						c-1.3-2.9-6.1-7.7-9.7-6.3C161.5,219.6,167.3,225.6,169.6,227.4z"/>
					<path fill="#87C34D" d="M180.5,234.7c-0.7,0.9-1.4,1.9-1.1,3c0.3,0.9,1.5,1.3,2.4,1.2c1-0.1,1.8-0.7,2.6-1.3
						c1.9-1.3,5.7-4,3.3-6.6C185.2,228.4,181.9,232.9,180.5,234.7z"/>
					<path fill="#87C34D" d="M164.8,198.4c-0.8,0.1-1.6,0.6-1.7,1.4c-0.2,0.9,0.6,1.7,1.4,2.3c1.9,1.4,7.4,5.3,8.7,1.6
						C174.3,200.2,167.3,198.1,164.8,198.4z"/>
					<g>
						<path fill="#87C34D" d="M175.1,186.1c-1.2,0.1-2.3-0.3-3.5-0.2c-1.2,0.1-2.4,1-2.2,2.1c0.2,1,1.5,1.4,2.6,1.5
							c1.8,0.1,3.7,0,5.4-0.4c0.4-0.1,0.9-0.2,1.1-0.6c0.5-0.7-0.3-1.6-1.1-1.9C176.8,186.5,175.9,186.5,175.1,186.1L175.1,186.1z"
							/>
					</g>
					<g>
						<path fill="#87C34D" d="M186.4,194.1c1.2,0,2.3-0.5,3.4-0.5c1.2,0,2.5,0.8,2.3,2c-0.2,1.1-1.4,1.5-2.5,1.6
							c-1.8,0.2-3.6,0.2-5.5,0c-0.4-0.1-0.9-0.1-1.1-0.5c-0.5-0.7,0.2-1.6,0.9-1.9C184.7,194.5,185.6,194.5,186.4,194.1L186.4,194.1
							z"/>
					</g>
					<g>
						<path fill="#87C34D" d="M185.2,279.3c0.3-0.2,0.6-0.5,1-0.5c0.5,0,0.9,0.5,1,1c0.1,0.5,0,1-0.2,1.5
							c-0.8,2.6-9.6,21.6-11.6,18.2c-1.2-2,1.7-8.7,2.6-10.6C179.7,285.2,182.2,281.9,185.2,279.3z"/>
					</g>
				</g>
			</g>
			<path fill="none" stroke="#263238" stroke-linecap="round" stroke-linejoin="round" stroke-miterlimit="10" d="M180.9,191.7
				c0,0-0.5-4.6,0.6-5"/>
			<g>
				<path fill="#87C34D" d="M180,186.9c0.7-1.6,1.5-3.2,2.8-4.2c1.4-1,3.6-1.1,4.6,0.3c1.1,1.6,0,3.9-1.7,4.7
					c-1.7,0.8-3.8,0.6-5.7,0.3c0-0.3,0-0.6,0-0.8L180,186.9z"/>
			</g>
		</g>
	</g>
</g>
<g id="Building">
	<g>
		
			<line fill="none" stroke="#263238" stroke-linecap="round" stroke-linejoin="round" stroke-miterlimit="10" x1="53.8" y1="301" x2="53.8" y2="202.2"/>
		
			<line fill="none" stroke="#263238" stroke-linecap="round" stroke-linejoin="round" stroke-miterlimit="10" x1="362.4" y1="301" x2="350.1" y2="301"/>
		
			<line fill="none" stroke="#263238" stroke-linecap="round" stroke-linejoin="round" stroke-miterlimit="10" x1="458.1" y1="301" x2="433.2" y2="301"/>
		<polyline fill="none" stroke="#263238" stroke-linecap="round" stroke-linejoin="round" stroke-miterlimit="10" points="
			349,150.9 393.1,150.9 393.1,108.9 		"/>
		<polyline fill="none" stroke="#263238" stroke-linecap="round" stroke-linejoin="round" stroke-miterlimit="10" points="92.2,138 
			139,138 139,172.2 190.3,172.2 		"/>
		<g>
			
				<line fill="none" stroke="#263238" stroke-linecap="round" stroke-linejoin="round" stroke-miterlimit="10" x1="64.5" y1="253.7" x2="64.5" y2="178.2"/>
			
				<line fill="none" stroke="#263238" stroke-linecap="round" stroke-linejoin="round" stroke-miterlimit="10" x1="85.5" y1="145.5" x2="85.5" y2="204.6"/>
			
				<line fill="none" stroke="#263238" stroke-linecap="round" stroke-linejoin="round" stroke-miterlimit="10" x1="106.4" y1="145.5" x2="106.4" y2="197.8"/>
			
				<line fill="none" stroke="#263238" stroke-linecap="round" stroke-linejoin="round" stroke-miterlimit="10" x1="127.3" y1="145.5" x2="127.3" y2="236.9"/>
		</g>
		<g>
			<polyline fill="none" stroke="#263238" stroke-linecap="round" stroke-linejoin="round" stroke-miterlimit="10" points="
				227.4,132.5 227.4,72.4 312.6,72.4 312.6,132.5 			"/>
			<g>
				<polyline fill="none" stroke="#263238" stroke-linecap="round" stroke-linejoin="round" stroke-miterlimit="10" points="
					233.7,102.2 233.7,79.5 249.4,79.5 				"/>
				<polyline fill="none" stroke="#263238" stroke-linecap="round" stroke-linejoin="round" stroke-miterlimit="10" points="
					252.9,102.2 252.9,79.5 268.6,79.5 				"/>
				<polyline fill="none" stroke="#263238" stroke-linecap="round" stroke-linejoin="round" stroke-miterlimit="10" points="
					272.1,102.2 272.1,79.5 287.8,79.5 				"/>
				<polyline fill="none" stroke="#263238" stroke-linecap="round" stroke-linejoin="round" stroke-miterlimit="10" points="
					291.3,102.2 291.3,79.5 307,79.5 				"/>
			</g>
			<g>
				<polyline fill="none" stroke="#263238" stroke-linecap="round" stroke-linejoin="round" stroke-miterlimit="10" points="
					233.7,132.5 233.7,109.8 249.4,109.8 				"/>
				<polyline fill="none" stroke="#263238" stroke-linecap="round" stroke-linejoin="round" stroke-miterlimit="10" points="
					252.9,132.5 252.9,109.8 268.6,109.8 				"/>
				<polyline fill="none" stroke="#263238" stroke-linecap="round" stroke-linejoin="round" stroke-miterlimit="10" points="
					272.1,132.5 272.1,109.8 287.8,109.8 				"/>
				<polyline fill="none" stroke="#263238" stroke-linecap="round" stroke-linejoin="round" stroke-miterlimit="10" points="
					291.3,132.5 291.3,109.8 307,109.8 				"/>
			</g>
		</g>
		
			<line fill="none" stroke="#263238" stroke-linecap="round" stroke-linejoin="round" stroke-miterlimit="10" x1="399.9" y1="114.1" x2="399.9" y2="189.4"/>
		
			<line fill="none" stroke="#263238" stroke-linecap="round" stroke-linejoin="round" stroke-miterlimit="10" x1="430.8" y1="295.5" x2="433.2" y2="295.5"/>
		
			<line fill="none" stroke="#263238" stroke-linecap="round" stroke-linejoin="round" stroke-miterlimit="10" x1="418.4" y1="135.7" x2="418.4" y2="220.1"/>
		<polyline fill="none" stroke="#263238" stroke-linecap="round" stroke-linejoin="round" stroke-miterlimit="10" points="
			437,273.9 437,295.5 451.8,295.5 		"/>
		
			<line fill="none" stroke="#263238" stroke-linecap="round" stroke-linejoin="round" stroke-miterlimit="10" x1="437" y1="163.2" x2="437" y2="220.5"/>
		<polyline fill="none" stroke="#263238" stroke-linecap="round" stroke-linejoin="round" stroke-miterlimit="10" points="
			455.5,206.7 455.5,295.5 458.9,295.5 		"/>
	</g>
</g>
<g id="Mail">
	<g>
		<g>
			
				<rect x="38.7" y="302.8" fill="#FFFFFF" stroke="#263238" stroke-linecap="round" stroke-linejoin="round" stroke-miterlimit="10" width="191" height="124.1"/>
			<polygon fill="#FFFFFF" stroke="#263238" stroke-linecap="round" stroke-linejoin="round" stroke-miterlimit="10" points="
				38.7,302.8 134.2,364.8 229.7,302.8 			"/>
			
				<line fill="none" stroke="#263238" stroke-linecap="round" stroke-linejoin="round" stroke-miterlimit="10" x1="105.5" y1="346.2" x2="38.7" y2="426.8"/>
			
				<line fill="none" stroke="#263238" stroke-linecap="round" stroke-linejoin="round" stroke-miterlimit="10" x1="163.4" y1="346.2" x2="230.2" y2="426.8"/>
		</g>
	</g>
</g>
<g id="Device">
	<path fill="#87C34D" d="M331.9,144.5h-44.4c-2.6,0-5,1.4-6.3,3.7l0,0c-3.4,6.1-11.1,8.3-17.2,4.9c-2.1-1.1-3.8-2.8-4.9-4.9l0,0
		c-1.2-2.3-3.7-3.8-6.3-3.8h-44.3c-5.1-0.1-9.3,4-9.4,9.2V404c0.1,5.1,4.3,9.2,9.4,9.2h123.4c5.1,0.1,9.3-4,9.4-9.2V153.6
		C341.2,148.5,337,144.4,331.9,144.5z"/>
	<path fill="#263238" d="M345.6,150.9c0-7.1-5.7-12.8-12.8-12.8c0,0,0,0,0,0H207.6c-7.1,0-12.8,5.7-12.8,12.8c0,0,0,0,0,0V414
		c0,7.1,5.7,12.8,12.8,12.8c0,0,0,0,0,0h125.2c7.1,0,12.8-5.7,12.8-12.8c0,0,0,0,0,0V150.9z M341.3,404c-0.1,5.1-4.3,9.2-9.4,9.2
		H208.5c-5.1,0.1-9.3-4-9.4-9.2V153.6c0.1-5.1,4.3-9.2,9.4-9.2h44.4c2.6,0,5,1.4,6.3,3.8l0,0c3.4,6.1,11.1,8.3,17.2,4.9
		c2.1-1.1,3.8-2.8,4.9-4.9l0,0c1.3-2.3,3.7-3.7,6.3-3.7h44.4c5.1-0.1,9.3,4,9.4,9.2L341.3,404z"/>
	<g>
		<polygon opacity="0.2" fill="#FFFFFF" points="303.1,138 219.9,426.8 253,426.8 333,138 		"/>
		<polygon opacity="0.2" fill="#FFFFFF" points="290.7,138 202.8,426.8 207.6,426.8 293.9,138 		"/>
	</g>
	<g>
		<g>
			<g>
				<path fill="#FFFFFF" stroke="#263238" stroke-linecap="round" stroke-linejoin="round" stroke-miterlimit="10" d="M292.7,352.7
					c0.2,12.1-9.4,21.9-21.5,21.9c-12.1,0-22.1-9.8-22.3-21.9c-0.2-12.1,9.4-21.9,21.5-21.9C282.5,330.8,292.4,340.6,292.7,352.7z"
					/>
			</g>
			<path fill="#87C34D" stroke="#263238" stroke-linecap="round" stroke-linejoin="round" stroke-miterlimit="10" d="M263.6,369.1
				c-2-0.8-3.9-1.9-5.5-3.4c-1.6-1.5-2.8-3.4-3.6-5.5c-0.9-2.3-1.3-4.8-1.3-7.3c0-2.1,0.4-4.2,1.1-6.2c0.7-1.8,1.7-3.5,3-5
				c2.6-2.8,5.9-4.8,9.6-5.8c1.8-0.5,3.7-0.7,5.5-0.7c1.6,0,3.1,0.2,4.6,0.5c1.5,0.4,2.8,0.9,4.1,1.7c1.3,0.8,2.4,1.7,3.4,2.9
				c1,1.2,1.8,2.6,2.3,4.1c0.6,1.7,0.8,3.5,0.8,5.3c0,3.5-1.3,6.8-3.5,9.4c-1,1.1-2.1,2-3.4,2.8c-1.1,0.6-2.4,1-3.6,1
				c-0.9,0-1.7-0.3-2.4-0.8c-0.7-0.5-1.1-1.4-1.2-2.3c-1.5,2.1-3.5,3.2-6.1,3.2c-2.1,0-3.7-0.7-5-2.1c-1.2-1.4-1.9-3.2-1.9-5.2
				c0-1.6,0.3-3.1,0.8-4.6c0.5-1.5,1.3-2.9,2.2-4.2c0.9-1.3,2.1-2.3,3.5-3c1.4-0.8,2.9-1.2,4.5-1.2c1.1,0,2.2,0.3,3.1,0.8
				c0.9,0.5,1.7,1.3,2.2,2.2l0.2-0.7c0.3-1,1.4-1.5,2.4-1.2c0.2,0.1,0.4,0.2,0.5,0.3c0.3,0.3,0.5,0.6,0.5,1c0,0.2,0,0.4-0.1,0.5
				l-3.2,10.8c-0.4,1.2-0.5,2.1-0.5,2.5c0,0.8,0.4,1.2,1.2,1.2c1,0,2.1-0.5,3-1.4c1.1-1.1,1.9-2.4,2.4-3.8c0.6-1.6,0.9-3.2,0.9-4.9
				c0-1.5-0.2-3-0.6-4.4c-0.4-1.2-0.9-2.4-1.7-3.4c-0.7-0.9-1.6-1.7-2.6-2.3c-1-0.6-2.1-1.1-3.2-1.4c-1.2-0.3-2.4-0.5-3.6-0.5
				c-1.5,0-3.1,0.2-4.5,0.6c-1.5,0.4-3,1.1-4.3,1.9c-1.3,0.8-2.5,1.9-3.6,3.1c-1.1,1.2-1.9,2.7-2.5,4.2c-0.6,1.7-0.9,3.5-0.9,5.3
				c0,2.1,0.4,4.3,1.1,6.2c0.7,1.7,1.7,3.3,3.1,4.5c1.3,1.2,2.9,2.1,4.5,2.6c1.7,0.6,3.6,0.9,5.4,0.9c2,0,4-0.3,5.8-0.9
				c0.2-0.1,0.4-0.1,0.6-0.1c0.4,0,0.8,0.1,1,0.4c0.3,0.3,0.4,0.6,0.4,1c0.1,0.6-0.3,1.1-0.9,1.3c-2.4,0.7-4.8,1.1-7.3,1.1
				C268.1,370.3,265.7,369.9,263.6,369.1z M271.8,358.7c1-0.7,1.7-1.7,2.1-2.9l2.1-7.4l-0.1-0.3c-0.1-0.2-0.3-0.5-0.5-0.7
				c-0.2-0.3-0.5-0.6-0.8-0.8c-0.4-0.3-0.8-0.5-1.3-0.7c-1.2-0.4-2.5-0.4-3.6,0.1c-0.6,0.3-1.2,0.6-1.7,1.1c-0.5,0.5-1,1-1.4,1.6
				c-0.4,0.6-0.8,1.3-1,2c-0.3,0.7-0.5,1.4-0.7,2.1c-0.1,0.7-0.2,1.4-0.2,2.1c0,0.5,0,0.9,0.1,1.3c0,0.4,0.1,0.8,0.3,1.2
				c0.1,0.3,0.3,0.7,0.5,1c0.2,0.3,0.4,0.5,0.7,0.7c0.3,0.2,0.6,0.4,0.9,0.5c0.4,0.1,0.8,0.2,1.2,0.2
				C269.6,359.9,270.8,359.5,271.8,358.7L271.8,358.7z"/>
		</g>
		<g>
			<g>
				<path fill="#FFFFFF" stroke="#263238" stroke-linecap="round" stroke-linejoin="round" stroke-miterlimit="10" d="M292.2,277.6
					c0.2,12.1-9.4,21.9-21.5,21.9c-12.1,0-22.1-9.8-22.3-21.9c-0.2-12.1,9.4-21.9,21.5-21.9C282,255.7,291.9,265.5,292.2,277.6z"/>
			</g>
			<path fill="#87C34D" stroke="#263238" stroke-linecap="round" stroke-linejoin="round" stroke-miterlimit="10" d="M284,275.6
				c-6.9-4.5-20.3-4.5-26.9,0c-2.4,0.5-4.2,2.6-4.1,5.2c0.1,2.9,12.2,2.9,12.1,0c0-1.3-0.5-2.4-1.3-3.3c4.3-1,9.4-1,13.8,0
				c-0.7,0.9-1.1,2-1.1,3.3c0.1,2.9,12.2,2.9,12.1,0C288.4,278.2,286.5,276.1,284,275.6z"/>
		</g>
		<g>
			<g>
				<g>
					<path fill="#FFFFFF" stroke="#263238" stroke-linecap="round" stroke-linejoin="round" stroke-miterlimit="10" d="M292.2,204.6
						c0.1,5.4-2.8,10.2-7.5,13.4v13.1l-9.4-9.4c-1.5,0.3-3,0.4-4.6,0.4c-12.1,0-22.1-7.8-22.3-17.5c-0.2-9.7,9.4-17.5,21.5-17.5
						C282,187.1,291.9,195,292.2,204.6z"/>
				</g>
			</g>
			<path fill="#87C34D" stroke="#263238" stroke-linecap="round" stroke-linejoin="round" stroke-miterlimit="10" d="M260.9,204.6
				c0,1.6-1.3,2.8-2.8,2.8c-1.6,0-2.8-1.3-2.8-2.8c0-1.6,1.3-2.8,2.8-2.8C259.6,201.8,260.9,203.1,260.9,204.6z"/>
			<path fill="#87C34D" stroke="#263238" stroke-linecap="round" stroke-linejoin="round" stroke-miterlimit="10" d="M273.1,204.6
				c0,1.6-1.3,2.8-2.8,2.8c-1.6,0-2.8-1.3-2.8-2.8c0-1.6,1.3-2.8,2.8-2.8C271.8,201.8,273.1,203.1,273.1,204.6z"/>
			<path fill="#87C34D" stroke="#263238" stroke-linecap="round" stroke-linejoin="round" stroke-miterlimit="10" d="M285.2,204.6
				c0,1.6-1.3,2.8-2.8,2.8c-1.6,0-2.8-1.3-2.8-2.8c0-1.6,1.3-2.8,2.8-2.8C283.9,201.8,285.2,203.1,285.2,204.6z"/>
		</g>
	</g>
</g>
<g id="Character_1">
	<path fill="#87C34D" stroke="#263238" stroke-linecap="round" stroke-linejoin="round" d="M147.8,244.5c-0.3,0.7-0.9,1.2-1.5,1.6
		c-4.6,3.7-9.3,7.2-14.2,10.6c-1.8,1.2-3.6,2.5-5.3,3.9c-10.3,6.9-4,8.6-10.3,23.1c0,0,0,0,0,0c-1.5,3.5-1.2,20.5-1.2,20.5h-0.5
		c-1.1-1-2.7-2.5-3.9-3.3c0,0,0,0,0,0c-0.2-0.1-0.4-0.3-0.6-0.3c0,0,0,0,0,0c-0.2-0.1-0.4-0.2-0.6-0.2c-1-0.1-4.8,0.4-8.7,0.1
		c-0.3,0-0.7,0-1-0.1c-0.6-0.1-1.1-0.1-1.7-0.2c-0.5-0.1-1.1-0.2-1.6-0.4c-2.9-0.8-6.9-2.5-10.7-4.1l0,0c-0.6-0.3-1.2-0.5-1.7-0.8
		c-0.3-0.1-0.6-0.2-0.9-0.4c-0.3-0.1-0.5-0.2-0.8-0.3c-0.2-0.1-0.4-0.2-0.6-0.2c-0.2-0.1-0.4-0.2-0.5-0.2c0,0,0,0,0,0
		c-0.9-0.4-1.8-0.7-2.5-1c-0.4-0.1-0.7-0.2-1.1-0.3c-0.1,0.8-0.1,1.7-0.2,2.5c-0.5,3.9-1.6,7.5-3.5,8c0,0-0.1,0-0.1,0
		c-0.2,0-0.3,0-0.5,0c-0.1,0-0.1,0-0.2,0c-0.4,0-0.8-0.1-1.2-0.2c0,0,0,0,0,0c-1.6-0.6-3.2-2.1-4-3.8c-0.4-0.8-0.6-1.6-0.6-2.3
		c0-2.9-0.8-20.1-0.8-25.1c0-5,1.1-13.7,3.5-17c1.5-2,2.8-3,3.6-3.5c1.9-1.6,4.2-2.8,6.2-3.4c2.7-0.9,8.6-3.1,12.8-4.7v0
		c-1.8,0.7-4.1,1.6-6.3,2.4c1.6,2.7,5,7,11.1,7.6c5.8,0.5,9.4-4.7,11.2-8.6c0.2,0.1,10.2-1.8,12.6-1.7c7.6,0.3,13.8-3.8,16.6-5.4
		c3.6-2.1,8.4-0.4,9.6,3.6c0,0,0,0.1,0,0.1C148,242.3,148.3,243.5,147.8,244.5z"/>
	<g>
		<g>
			<g>
				<path fill="#FFFFFF" stroke="#263238" stroke-linecap="round" stroke-linejoin="round" d="M108.9,244.6
					C108.9,244.6,108.9,244.6,108.9,244.6c-0.2,0-0.3-0.1-0.5-0.1L108.9,244.6z"/>
				<path fill="#FFFFFF" stroke="#263238" stroke-linecap="round" stroke-linejoin="round" d="M117.5,308.7c0,0,0,0.1,0,0.1
					c-0.1,0.4-0.6,0.5-1.1,0.3c-0.5-0.3-1.2-1.9-1.2-1.9l-0.8-0.8l-0.5-0.5c0,0,0,0,0,0c0.1,0.2,0.7,1.7,0.4,2.4c0,0,0,0.1-0.1,0.1
					c-0.1,0.1-0.2,0.3-0.4,0.4c-0.4,0.4-1,0.6-1.5,0.6h0c-0.4,0-1.7,0.1-2.8,0.2c0,0-0.1,0-0.1,0h0c-0.4,0-0.7,0-1,0
					c-0.9-0.1-1.7-0.4-2.5-0.8c0,0-3.6-0.6-5.2-1.2c-0.1,0-0.2-0.1-0.3-0.2c-0.1-0.1-0.2-0.1-0.3-0.2c-0.2-0.1-0.3-0.2-0.5-0.4
					c-0.8-0.7-1.3-1.6-1.4-1.8c0,0,0,0,0,0v0c0,0-4.1-0.2-9.5-0.6c-2-0.2-4.2-0.3-6.4-0.6c-3.4-0.3-6.3-0.3-8.5-0.6
					c-0.1,0-0.1,0-0.2,0c-0.4-0.1-0.9-0.1-1.2-0.2c0,0,0,0,0,0c-2-0.5-3.3-1.5-4-3.8c-0.1-0.4-0.2-0.9-0.3-1.3l1.7-3
					c0,0,1.2-1,3-1.7c1.4-0.6,3.3-1,5.3-0.5c0.4,0.1,0.7,0.2,1.1,0.3c0.8,0.3,1.6,0.6,2.5,1c0.2,0.1,0.4,0.1,0.6,0.2
					c0.2,0.1,0.4,0.2,0.6,0.2c0.3,0.1,0.5,0.2,0.8,0.3c4.5,1.9,9.8,4.3,13.3,5.3c1,0.3,2.1,0.5,3.2,0.6c0.3,0,0.7,0.1,1,0.1
					c3.9,0.3,7.7-0.2,8.7-0.1c1.1,0.1,3.5,2.4,5.1,3.9c0.4,0.4,0.8,0.7,1.1,0.9c0,0,0.1,0.1,0.1,0.1c0,0,0.1,0,0.1,0.1
					c0.6,0.6,1,1.4,1.2,2.1c0,0,0,0,0,0c0.1,0.3,0.1,0.6,0.2,0.8C117.5,308.5,117.5,308.7,117.5,308.7z"/>
				<path fill="#FFFFFF" stroke="#263238" stroke-linecap="round" stroke-linejoin="round" d="M117.5,308.7c0,0,0,0.1,0,0.1
					c-0.1,0.4-0.6,0.5-1.1,0.3c-0.4-0.3-1.2-1.9-1.2-1.9l-0.8-0.8l-0.5-0.5l0,0c0.1,0.2,0.7,1.7,0.4,2.4c0,0,0,0.1-0.1,0.1
					c-0.1,0.1-0.2,0.3-0.4,0.4c-0.4,0.3-1,0.5-1.5,0.5c0,0,0,0,0,0h0c-0.4,0-1.7,0.1-2.8,0.2c0,0-0.1,0-0.1,0c-0.4,0-0.7,0-1,0
					c-0.9-0.1-1.7-0.4-2.5-0.8c0,0-3.6-0.6-5.2-1.2c-0.1,0-0.2-0.1-0.3-0.1c-0.1-0.1-0.2-0.1-0.3-0.2c-0.2-0.1-0.3-0.2-0.5-0.4
					c-0.8-0.7-1.3-1.6-1.4-1.8c0,0,0,0,0,0v0c0,0,0,0,0,0s-3.9-0.2-9.3-0.6c-2.1-0.2-4.3-0.3-6.6-0.6c-3.2-0.3-5.8-0.4-7.9-0.7
					c-0.2,0-0.4-0.1-0.7-0.1c-0.3-0.1-0.5-0.1-0.8-0.2c-0.1-1-0.1-2.3,0.4-3.6c0.6-1.6,1.9-3.1,4.5-4.1c0,0,0,0,0,0
					c1.3-0.5,2.5-0.8,3.8-1.1c0,0,0,0,0,0c0.2,0.1,0.4,0.1,0.5,0.2c0.2,0.1,0.4,0.2,0.6,0.2c0.3,0.1,0.5,0.2,0.8,0.3
					c4.5,2,9.8,4.3,13.3,5.3c1,0.3,2.1,0.5,3.3,0.6c0.3,0,0.7,0.1,1,0.1c3.9,0.3,7.6-0.2,8.7-0.1c1.1,0.1,3.5,2.4,5,3.9
					c0.4,0.4,0.8,0.7,1.1,0.9c0,0,0.1,0.1,0.1,0.1c0,0,0.1,0,0.1,0.1c0.6,0.5,1,1.4,1.2,2.1c0,0,0,0,0,0c0.1,0.3,0.1,0.6,0.2,0.8
					C117.5,308.5,117.5,308.7,117.5,308.7z"/>
				<path fill="#FFFFFF" stroke="#263238" stroke-linecap="round" stroke-linejoin="round" d="M105.5,306.1c0,0,2.3,1.2,3.2,1.6
					c0.9,0.4,0.8,2.1,0.8,2.1"/>
				<path fill="#FFFFFF" stroke="#263238" stroke-linecap="round" stroke-linejoin="round" d="M107.9,304.5c0,0,3.5,2.5,4.1,3.3
					c0.4,0.5,0.5,1.1,0.3,1.7"/>
				<path fill="#FFFFFF" stroke="#263238" stroke-linecap="round" stroke-linejoin="round" d="M113.9,305.8c0,0-3.3-3.5-3.8-3.6"/>
				<path fill="#FFFFFF" stroke="#263238" stroke-linecap="round" stroke-linejoin="round" d="M108.9,244.6c-1.8,3.8-5.4,9-11.2,8.6
					c-6.1-0.5-9.6-4.8-11.1-7.6c2.2-0.8,4.4-1.7,6.3-2.4v0c0-1.9-0.1-4.1-0.3-6.3c0-0.5-0.1-1-0.2-1.5c-0.1-0.4-0.1-0.8-0.2-1.1
					h11.6c0,0-0.1,0.5-0.2,1.2c0,0,0,0,0,0c-0.1,0.7-0.2,1.6-0.2,2.6c-0.1,1.4-0.2,3-0.1,4.5c0.6,0.2,1.1,0.4,1.7,0.6
					c0.4,0.1,0.7,0.3,1.1,0.4c0.4,0.2,0.9,0.3,1.3,0.4l1,0.3C108.6,244.5,108.8,244.6,108.9,244.6z"/>
				<path fill="#263238" d="M92.4,235.4c0,0,2.2,5.6,5.3,6.6c3.2,1,6-6.5,6-6.5s-4.4,4.7-6.1,4S92.4,235.4,92.4,235.4"/>
				<path fill="#263238" stroke="#263238" stroke-linecap="round" stroke-linejoin="round" d="M90.6,204.3c-3,2.5-5.1,6-6.8,9.5
					c-1.4,3-2.6,6.5-1.5,9.6c0.6,1.6,1.7,2.9,2.7,4.2c2.2,2.6,5.2,9.8,7.4,12.4c0.1-4.6-3.7-12.1-3.3-15.9c0.3-3,1.6-5.8,2.9-8.5
					c1.6-3.4,3.2-6.9,5.7-9.8c1.3-1.6,5.5-4.4,1.3-4.7C96,200.8,92.7,202.5,90.6,204.3z"/>
				<path fill="#FFFFFF" stroke="#263238" stroke-linecap="round" stroke-linejoin="round" d="M87.8,220c0,0-1.5-2.9-3.1-0.1
					c-1.1,2,0.5,5.1,1.2,6.3c0.5,0.7,1.3,1.1,2.1,1L87.8,220z"/>
				<path fill="#FFFFFF" stroke="#263238" stroke-linecap="round" stroke-linejoin="round" d="M107.4,230.4
					c-0.3,0.9-1.8,3.1-3.7,5.1c-0.3,0.3-0.6,0.6-0.9,0.9c-1.9,1.8-3.9,3.3-5.2,3c-1.1-0.2-2.6-1.4-4.1-2.9c-0.4-0.4-0.7-0.8-1.1-1.2
					v0c-1.9-2.1-3.5-4.5-4.1-5.8c-0.3-0.6-0.5-1.4-0.6-2.4c-0.3-2.3-0.3-5.4-0.3-7.5c0-0.9,0-1.6,0-2c0-1.7,6.5-7.8,6.5-7.8
					c0.1-0.1,0.3-0.1,0.6-0.1c0.7,0.1,1.9,0.5,3.2,1.1c4,1.9,9.5,5.7,9.9,7.2C108.2,220.2,108,228.6,107.4,230.4z"/>
				<path fill="#263238" d="M94.5,222.4c0,0.7-0.3,1.3-0.6,1.3c-0.3,0-0.6-0.6-0.6-1.3s0.3-1.3,0.6-1.3
					C94.2,221.1,94.5,221.7,94.5,222.4z"/>
				<path fill="#263238" d="M101.9,221.1c0.3,0,0.6,0.6,0.6,1.3s-0.3,1.3-0.6,1.3s-0.6-0.6-0.6-1.3S101.6,221.1,101.9,221.1z"/>
				<path fill="none" stroke="#263238" stroke-linecap="round" stroke-linejoin="round" d="M90.7,219.3c0,0,1.1-2,4.5-1.4"/>
				<path fill="none" stroke="#263238" stroke-linecap="round" stroke-linejoin="round" d="M105.2,219.3c0,0-1-2-4.5-1.4"/>
				<path fill="none" stroke="#263238" stroke-linecap="round" stroke-linejoin="round" d="M98.7,227.3c0.8-0.1,1.4-0.6,1.5-1.3
					c0,0-1.9-3-1.4-5.9"/>
				<g>
					<path fill="none" stroke="#FFFFFF" stroke-linecap="round" stroke-linejoin="round" d="M86.6,213c-0.8,1.1-1.4,2.3-1.8,3.6"/>
					<path fill="none" stroke="#FFFFFF" stroke-linecap="round" stroke-linejoin="round" d="M94.9,205c0,0-1.1,1.8-6,5.6
						c-0.3,0.2-0.6,0.5-0.9,0.7"/>
				</g>
			</g>
			<path fill="#263238" stroke="#263238" stroke-linecap="round" stroke-linejoin="round" d="M79.3,263.6c-0.7,9.5-1.3,19-2,28.5
				c0-0.2,0-0.5,0-0.7"/>
			<path fill="#FFFFFF" stroke="#263238" stroke-linecap="round" stroke-linejoin="round" d="M142.4,232.2c1.8-0.8,3.9-0.4,5.5,0.6
				c1.6,1.1,2.7,2.8,3.3,4.6c0.6,1.9,0.6,4-0.2,5.7c-0.8,1.8-2.6,3.2-4.5,3.2c-1.4,0.1-2.8-0.6-4-1.5
				C138.8,242.3,136.9,234.6,142.4,232.2z"/>
		</g>
		<g>
			<g>
				<path fill="#FFFFFF" stroke="#263238" stroke-linecap="round" stroke-linejoin="round" d="M150.7,200.3c0,0.1,0,0.9,0.1,1
					c0.4,1.5,1.1,5.4-0.8,6.2c0.7,2.5,2.4,19.1,2.2,27.5c-0.1,2.5-0.5,5.5-2.8,6.6c-3.8,1.8-7.4-2.6-7-6.1c0.7-4.7,0.4-9.5,1-14.3
					c0.6-4.9,1.7-10,0.5-14.8c-0.3-0.3-2.2-4.1-2.8-5.2c-0.3-0.5-0.5-0.9-0.7-1.4c-0.3-1.1-0.4-4.5-0.4-5.2c0.6-1.1,1.3-0.1,1.7,0.6
					c0.3,0.5,0.4,1.5,0.3,2.7c0,0.2,0,0.5,0.1,0.7c0.2,0.2,0.5,0.4,0.7,0.3c1.2-0.2,1.2-1.2,1.2-2c0-2.6,0-5.3,0-7.9
					c0-0.4,0.1-1.6,0.6-1.7c0.5,0,1,0.3,1.1,1.7c0.1,1.6,0.1,6.5,0.1,6.5c0.1,0.1,0.2,0.1,0.3,0.1c0.1-0.1,0.1-0.2,0.2-0.3
					c0.6-2.5,1.2-4.9,1.8-7.4c0.1-0.3,0.5-0.9,0.8-0.9c0.7,0,0.8,0.9,0.8,1.1c0.3,1.3-1.6,6.8-1.9,8c-0.1,0.2,0,0.6,0.2,0.5l2.9-5.8
					c0.2-0.6,0.9-1.3,1.6-1.4c0.1,0,0.1,0,0.1,0c0.1,0,0.1,0.1,0.1,0.1c0.3,0.5,0,1.2-0.2,1.7c-0.2,0.5-2.3,4.6-3.1,6.2
					c-0.1,0.2-0.3,0.7-0.1,1c0.3,0.1,0.6-0.2,0.8-0.6c0.5-1,1-1.9,1.4-2.9c0.1-0.3,0.3-0.7,0.7-0.6
					C154.3,194.8,151.5,198.9,150.7,200.3z"/>
				<path fill="#FFFFFF" stroke="#263238" stroke-linecap="round" stroke-linejoin="round" d="M145.3,199.5c1,0.8,1.9,1.7,2.6,2.8
					c0.7,1.1,1,2.5,0.6,3.7c-0.1,0.2-0.1,0.3-0.2,0.5"/>
			</g>
		</g>
		<path fill="none" stroke="#263238" stroke-linecap="round" stroke-linejoin="round" d="M117.2,261.9c1.1,2.5,1.8,4.6,2.1,6.8
			c0.3,2.4,0.4,4.2-1.2,10.8"/>
		<path fill="#263238" stroke="#263238" stroke-linecap="round" stroke-linejoin="round" d="M94.6,208.3c-0.1,0.4-0.2,0.9-0.1,1.3
			c0.1,0.5,0.6,1,1,1.3c3.2,2.8,6.8,5.1,10.6,6.9c0.4,0.2,0.9,0.4,1.2,0.8c0.3,0.4,0.3,0.9,0.3,1.4c0,2.6,0,5.1,0,7.7
			c0,0.8,0,1.6-0.2,2.4c-0.6,1.8-1.8,3.3-2.7,4.9c-0.9,1.6-1.4,3.3-1.3,5.2c-0.2-1.9,6.4-5.6,8.2-13.1c0.3-1.1,5.5-7.4,2.3-14.8
			c-3-7.1-7.7-10.2-9.3-10.5c-2.5-0.6-4.3-0.3-6.4,1.2C96.5,204.4,95.2,206.2,94.6,208.3z"/>
		<g>
			<path fill="none" stroke="#263238" stroke-linecap="round" stroke-linejoin="round" d="M101.1,230c-0.6,0.1-1.2,0.2-1.7,0.3
				c-1.9,0.2-4.1-0.1-5.4-1.5c0.1,1.3,1,6.3,3.7,6.4C100.4,235.3,101.1,230,101.1,230z"/>
		</g>
		<path fill="none" stroke="#FFFFFF" stroke-linecap="round" stroke-linejoin="round" d="M98.5,205.3c1.1,2.6,3,4.9,5.3,6.5
			c1.7,1.2,3.6,2.1,5.2,3.5c2,1.8,3.3,4.7,2.5,7.4"/>
		<path fill="none" stroke="#263238" stroke-linecap="round" stroke-linejoin="round" d="M119.4,245.7c0,0-2.9,2-3.6,6.2
			c-0.3,2.1-0.1,4.3,0.8,6.3"/>
		<path fill="#263238" stroke="#263238" stroke-linecap="round" stroke-linejoin="round" d="M82.2,262.2c-0.2,2.6-1.8,4.9-3.4,7"/>
		<g>
			<path fill="none" stroke="#263238" stroke-linecap="round" stroke-linejoin="round" d="M78.3,282.2c1.6,2.7,4.3,4.6,7.3,5.2"/>
			<path fill="none" stroke="#263238" stroke-linecap="round" stroke-linejoin="round" d="M116.6,283.8c0,0-2.7,4-11.8,4.8"/>
		</g>
	</g>
</g>
<g id="Character_2_1_">
	<g>
		<g>
			<g>
				<defs>
					<path id="XMLID_2_" d="M384.3,248.7c0,0-34.8,10.8-41.4,2.3l0.9-43.5h5.3l6.2,30.6l28.6-5.2
						C383.8,232.9,387.5,244.3,384.3,248.7z"/>
				</defs>
				<use xlink:href="#XMLID_2_"  overflow="visible" fill="#FFFFFF"/>
				<clipPath id="XMLID_5_">
					<use xlink:href="#XMLID_2_"  overflow="visible"/>
				</clipPath>
				<path clip-path="url(#XMLID_5_)" fill="#87C34D" d="M369.6,250.3c-1.9,0.9-4,1.7-5.7,3.1c2.4,0.7,4.9-0.2,7.2-1
					c3.1-1,6.3-1.7,9.5-2.2c0.1-0.9-1-2.9-1.5-3.7c-0.8-1.4-1-1.5-2.4-0.8C374.3,246.8,372.2,249,369.6,250.3z"/>
				
					<use xlink:href="#XMLID_2_"  overflow="visible" fill="none" stroke="#263238" stroke-linecap="round" stroke-linejoin="round" stroke-miterlimit="10"/>
			</g>
			<g>
				<defs>
					<path id="XMLID_1_" d="M380.9,249.9l6.1,37.7c-0.2,24.4,11.5,20.8,19.6,20.7c9.3-0.1,23.5-9.3,16.6-23.8l2.7-52.2l-16.3-1.3
						c-5.4-0.4-27.4,0.3-29.1,3.1C375.9,241.4,380.9,249.9,380.9,249.9z"/>
				</defs>
				<use xlink:href="#XMLID_1_"  overflow="visible" fill="#FFFFFF"/>
				<clipPath id="XMLID_6_">
					<use xlink:href="#XMLID_1_"  overflow="visible"/>
				</clipPath>
				<g clip-path="url(#XMLID_6_)">
					<path fill="#87C34D" d="M381.8,253c3.5,13.6,12.5,25.7,24.4,33.2c-1.3-0.1-2.5-0.7-3.8-1.1c-1.2-0.4-2.6-0.7-3.9-0.2
						c-1.2,0.5-2.1,2-1.5,3.2c0.3,0.5,0.7,0.8,1.2,1.2c2,1.4,4.2,2.5,6.5,3.3c-2-0.2-4.1,0-6,0.5c-0.4,1.7,1.6,3,3.1,3.9
						c2.4,1.4,4.5,3.4,6.1,5.7c-5.4,0-10.7,0.3-16.1,0.9c-0.7,0.1-1.5,0.2-2.1-0.2c-0.7-0.4-1.1-1.3-1.3-2.1
						c-1.2-4.2-1.9-8.5-2.1-12.8c-0.1-2.4,0-4.9-0.3-7.3c-0.2-1.9-0.6-3.8-1.1-5.7c-1.6-7.2-2.7-14.5-3.6-21.8
						C381.1,253.7,381.8,253,381.8,253z"/>
					<g>
						<g>
							<path fill="#87C34D" d="M423.2,250c-0.8-0.3-2.5-0.9-3.7-2c0.3,1.5,2.6,4.1,3.9,4.9c0.3,0.2,0.7,0.3,0.9,0.1
								c0.2-0.2,0.4-0.8,0.6-1L423.2,250z"/>
						</g>
					</g>
				</g>
				
					<use xlink:href="#XMLID_1_"  overflow="visible" fill="none" stroke="#263238" stroke-linecap="round" stroke-linejoin="round" stroke-miterlimit="10"/>
			</g>
			<g>
				<path fill="#87C34D" stroke="#263238" stroke-linecap="round" stroke-linejoin="round" d="M392.8,230.2
					c-1.7,3.2-2.6,6.9-2.4,10.5c0,0.3,0,0.6,0.2,0.9c0.4,0.9,1.7,0.9,2.7,1c3.8,0.5,6.2,4.6,9.9,5.9c0.3,0.1,0.6,0.2,0.9,0.1
					c0.3-0.1,0.5-0.3,0.7-0.5c1.6-2,2.1-4.8,4.3-6.1c0.9-0.6,2.1-0.8,2.8-1.7c0.7-1,0.4-2.4,0.1-3.7c-0.6-2-1.2-4.1-2.8-5.5
					c-1.5-1.4-3.7-1.8-5.7-2c-3-0.2-6.1,0-9,0.8C394.3,230.5,392.8,230.2,392.8,230.2z"/>
			</g>
			<g>
				<defs>
					<path id="XMLID_3_" d="M441.2,255.8c-2.4-3.5-4.3-7.5-5.3-11.7c-0.5-2.1-0.9-4.2-1.8-6.1c-1.5-3-4.5-5.3-7.9-5.9
						c-0.7-0.1-1.5-0.2-2.2,0.1c-1.4,0.5-2.1,2.2-2.4,3.7c-0.6,3.2-0.4,6.7,0.5,9.8c0.7,2.2,8.7,17.8,14.1,23.9
						C435.7,266.6,439.2,256.4,441.2,255.8z"/>
				</defs>
				<use xlink:href="#XMLID_3_"  overflow="visible" fill="#FFFFFF"/>
				<clipPath id="XMLID_7_">
					<use xlink:href="#XMLID_3_"  overflow="visible"/>
				</clipPath>
				<g clip-path="url(#XMLID_7_)">
					<path fill="#87C34D" d="M425.4,252.7c1.6,3.1,3.3,6.2,4.9,9.3c0.7,1.3,1.5,2.7,2.9,3.3c-0.9-3.1-1.4-6.3-1.5-9.4
						c-0.1-1.6,0-3.2-0.5-4.8c-0.2,0.2-0.4-0.6-0.4-0.6c-0.2,0.4-0.8,0.4-1.2,0.3c-3.2-0.7-5.4-3.6-7.4-6.2c-0.5,1.8-0.2,3.8,1,5.3
						C423.2,250,425.2,252.4,425.4,252.7z"/>
				</g>
				
					<use xlink:href="#XMLID_3_"  overflow="visible" fill="none" stroke="#263238" stroke-linecap="round" stroke-linejoin="round" stroke-miterlimit="10"/>
			</g>
			<g>
				<path fill="#FFFFFF" stroke="#263238" stroke-linecap="round" stroke-linejoin="round" stroke-miterlimit="10" d="M434.3,267
					c-5.4-10.3-2.8-34.1-2.9-37.9l7.1-0.4c0.7,0,4,20.3,6.2,28.7c2,7.7,0.1,15.4-3.5,15.4C438.2,272.8,435.4,269.2,434.3,267z"/>
				<g>
					<path fill="none" stroke="#263238" stroke-linecap="round" stroke-linejoin="round" stroke-miterlimit="10" d="M370.1,240.2
						c5-7.3,14.8-7.9,14.8-7.9"/>
					<path fill="#FFFFFF" stroke="#263238" stroke-linecap="round" stroke-linejoin="round" stroke-miterlimit="10" d="M350.9,244.3
						c1.7-1.4,3-3.9,3.5-5"/>
					<path fill="none" stroke="#263238" stroke-linecap="round" stroke-linejoin="round" stroke-miterlimit="10" d="M388,278.8
						c2.9,4.7,21.3,9.7,28.7,8.6"/>
					<path fill="none" stroke="#263238" stroke-linecap="round" stroke-linejoin="round" stroke-miterlimit="10" d="M393.2,292
						c5.3,0.9,10.8,0.7,16-0.6"/>
					<path fill="none" stroke="#263238" stroke-linecap="round" stroke-linejoin="round" stroke-miterlimit="10" d="M417.7,246.7
						c1.2,1.6,2.3,3.2,3.5,4.8c0.5,0.7,1.2,1.4,1.9,1.2"/>
				</g>
			</g>
		</g>
		<g>
			<g>
				<g>
					<path fill="#FFFFFF" stroke="#263238" stroke-linecap="round" stroke-linejoin="round" stroke-miterlimit="10" d="M443.9,427.6
						c-0.3,1.3-0.4,2.8,0.5,3.7c0.8,0.9,2.2,0.9,3.5,0.9c1.4,0,2.8-0.1,4.2-0.1c1.6,0,3.3-0.1,4.8-0.8c1.5-0.7,2.7-2.2,2.5-3.8
						c-0.1-0.6-0.3-1.2-0.6-1.8c-0.4-0.8-0.8-1.6-1.1-2.5C453,413.1,445.9,419.3,443.9,427.6z"/>
					<path fill="#FFFFFF" stroke="#263238" stroke-linecap="round" stroke-linejoin="round" stroke-miterlimit="10" d="M437.9,415.5
						c0.1,4.7-0.2,9.5-1.2,14.1c-0.2,1.1,0,2.6,1.1,2.5c0.4,0,0.7-0.3,1-0.6c3.7-3.6,6.3-8.2,7.6-13.2c0.3-1.1,0.5-2.3-0.1-3.2
						c-0.3-0.4-0.7-0.7-1-1.1C441.8,411.4,437.6,408.7,437.9,415.5z"/>
				</g>
				<g>
					<g>
						<path fill="#263238" d="M426.3,294.6c0,0,5.3,9.2,6.4,11.3c1.1,2.1,25,33.5,29.6,56.3c0.9,4.3-16.7,52.9-16.7,52.9l-4-2.3
							c0,0,2.8-44.3,2.1-47.9c-0.7-3.7-18.3-30.8-18.3-30.8s-9.8-7.2-13.8-15.6L426.3,294.6z"/>
					</g>
					<g>
						<path fill="#263238" d="M426.9,317.6c0,0-3,6.7-3,7.6c0,1,16.5,53.1,21.3,65.2c3.1,7.8,5.8,15.7,8.1,23.8c0,0,1.9,2.5,0.5,5
							c-1.4,2.5-7.1,4.2-8.2,1.9c-1.2-2.3-12.6-14-17.4-25.7c-4.8-11.6-11.6-31.2-15.4-38.5c-5.1-9.3-9.5-18.9-13.4-28.7
							c-4.9-12.4-9.8-25.8-9.8-25.8c2,0.2,4,0.2,6.1,0.2c4.7-0.2,9.5-1,14-2.5c10.5-3.5,15.1-10.3,15.1-10.3s2.6,7.1,3.3,8.4
							L426.9,317.6z"/>
					</g>
				</g>
			</g>
			<g>
				<path fill="none" stroke="#FFFFFF" stroke-linecap="round" stroke-linejoin="round" stroke-miterlimit="10" d="M460.5,366.7
					c-1,1.8-2.4,3.3-4.1,4.5"/>
				<path fill="none" stroke="#FFFFFF" stroke-linecap="round" stroke-linejoin="round" stroke-miterlimit="10" d="M461.8,363.8
					c-0.2,0.5-0.3,1-0.5,1.4"/>
				<path fill="none" stroke="#FFFFFF" stroke-linecap="round" stroke-linejoin="round" stroke-miterlimit="10" d="M417.3,302
					c2.7,4.6,5.2,11.2,4.8,16.5c-0.1,0.8-1,2.8-1,2.8"/>
				<path fill="none" stroke="#FFFFFF" stroke-linecap="round" stroke-linejoin="round" stroke-miterlimit="10" d="M401.2,307.1
					c0.3,2.6,0.7,6.8,0.1,9.3c-0.6,2.5-1.9,4.9-4.1,6.3"/>
				<path fill="none" stroke="#FFFFFF" stroke-linecap="round" stroke-linejoin="round" stroke-miterlimit="10" d="M423.9,297.4
					c0.7,0.6,0.9,1.6,1.4,2.4c1.4,2.6,4.2,4.6,6.5,4.9"/>
				<path fill="none" stroke="#FFFFFF" stroke-linecap="round" stroke-linejoin="round" stroke-miterlimit="10" d="M415.4,307.7
					c3.5,7.7,6.2,15.5,11.7,28.6"/>
				<path fill="none" stroke="#FFFFFF" stroke-linecap="round" stroke-linejoin="round" stroke-miterlimit="10" d="M413.6,303.7
					c0.3,0.6,0.6,1.2,0.9,1.8"/>
				<path fill="none" stroke="#FFFFFF" stroke-linecap="round" stroke-linejoin="round" stroke-miterlimit="10" d="M442.9,362.8
					c1.6,3.1,3.7,6,6.1,8.5"/>
				<path fill="none" stroke="#FFFFFF" stroke-linecap="round" stroke-linejoin="round" stroke-miterlimit="10" d="M444.6,365.7
					c1,4.9,3,9.6,5.7,13.8"/>
				<g>
					<path fill="none" stroke="#FFFFFF" stroke-linecap="round" stroke-linejoin="round" stroke-miterlimit="10" d="M419.7,365.9
						c-7.8-16.6-16.1-33.1-26.3-58.2"/>
					<path fill="none" stroke="#FFFFFF" stroke-linecap="round" stroke-linejoin="round" stroke-miterlimit="10" d="M421.5,370.7
						c-0.2-0.6-0.4-1.2-0.6-1.8"/>
					<path fill="none" stroke="#FFFFFF" stroke-linecap="round" stroke-linejoin="round" stroke-miterlimit="10" d="M448.4,421.8
						c-2-2.6-16.6-23-20.2-32.2c-2.4-6.2-4.2-10.5-6-16.6"/>
				</g>
				
					<line fill="none" stroke="#FFFFFF" stroke-linecap="round" stroke-linejoin="round" stroke-miterlimit="10" x1="442.9" y1="382.6" x2="449.9" y2="403"/>
			</g>
		</g>
		<g>
			<g>
				<path fill="#FFFFFF" stroke="#263238" stroke-linecap="round" stroke-linejoin="round" stroke-miterlimit="10" d="M438.3,228.7
					l-2.1,0.2c-1.6,0.1-3.5,0.7-8-0.4c-1.7-0.4-5.5-1.6-6-1.7c-0.9-0.2-2.6-0.5-3.5-0.6c-3.5-0.2-1.7-1.5-0.3-1.5
					c1.9,0.1,2.6,0,4.1,0.2c-0.2-0.1-0.7-0.2-0.7-0.6c0-1,1.4-1,1.4-1s-1.5-0.6-1.3-1.4c0.2-0.7,1.2-1,1.9-0.9c0,0-0.9-0.4-0.8-0.8
					c0.2-1.7,3.7-1.8,3.7-1.8c-1-0.6-1.7-0.8-2.3-1.5c-0.3-0.3-0.4-0.6-0.5-1c-0.2-0.8,0.7-1.5,1.4-1.1c0.9,0.5,1.7,1.3,2.6,1.9
					c1.1,0.8,2.3,1.3,3.5,1.9c0.5,0.3,2.1,2.1,2.6,3.4C434,222.5,438.3,228.7,438.3,228.7z"/>
			</g>
			<g>
				<path fill="#FFFFFF" stroke="#263238" stroke-linecap="round" stroke-linejoin="round" stroke-miterlimit="10" d="M343.8,207.5
					V202c0-2.8,0.4-5.5,1.2-8.2c0.5-1.5,1-2.7,1.5-2.9c0.9-0.3,1.3,3.4,1.3,3.4s-1.3-5.8-1.3-9c0-3.2,4.3,10.1,4.3,10.1l-1.7,12.1
					H343.8z"/>
				<path fill="#FFFFFF" stroke="#263238" stroke-linecap="round" stroke-linejoin="round" stroke-miterlimit="10" d="M349,198.6
					c0.5-0.4,0.9-1,1.1-1.6"/>
			</g>
			<g>
				<g>
					<path fill="#87C34D" stroke="#263238" stroke-linecap="round" stroke-linejoin="round" stroke-miterlimit="10" d="M390.9,219
						c1.9,3.1,2.9,6.7,3,10.4c0.2,6.1,7.2,14.6,9.2,15c2,0.4,3.9-9.6,3.8-12.6c-0.1-3-1.2-11.4-1.2-11.4S396,213.1,390.9,219z"/>
					<path fill="#263238" d="M393.7,227c0,0,9.2,12.6,12.8-0.2C410.2,214,396.4,230.3,393.7,227z"/>
					<path fill="#FFFFFF" stroke="#263238" stroke-linecap="round" stroke-linejoin="round" stroke-miterlimit="10" d="M409.3,218
						c-0.5,7.5-3.9,11.7-7.8,12.4c-3.6,0.7-8.8-3-11.5-8.4c0,0,0,0,0,0c-0.2-0.1-3.4-2.3-4.2-2.9c-0.8-0.6-1.3-1.5-1.3-2.5
						c0-0.9,0.7-1.8,1.6-2.1c0,0,0.1,0,0.1,0c0.5-0.1,0.9-0.1,1.3,0.1c-0.7-2.6-1.2-5.1-1.6-7.8c0.2-6,2.2-10.9,8.6-11.4
						c6.4-0.5,11.7,3.1,12,5.7c0.2,2,0.8,7.3,1.4,12.8C408.1,215.4,409.4,216.3,409.3,218z"/>
					<path fill="#FFFFFF" stroke="#263238" stroke-linecap="round" stroke-linejoin="round" stroke-miterlimit="10" d="M406.6,209.4
						c0,0-4.1-1.9-3.4,4.2c0.1,1.2,2.4,3,2.4,3s-0.6,1.8-1.6,1.8"/>
					<path fill="#FFFFFF" stroke="#263238" stroke-linecap="round" stroke-linejoin="round" stroke-miterlimit="10" d="M398.6,211.5
						c0,0-2.1-1.3-3.5-0.5c-0.8,0.3-1.4,0.9-1.8,1.6"/>
					<path fill="#263238" d="M397.4,215c0.2,0.7,0,1.4-0.4,1.5c-0.4,0.1-0.8-0.4-1-1.2c-0.2-0.7,0-1.4,0.4-1.5
						C396.8,213.7,397.2,214.2,397.4,215z"/>
					<path fill="#263238" d="M405.5,212.8c0.2,0.7,0,1.4-0.4,1.5c-0.4,0.1-0.8-0.5-1-1.2c-0.2-0.7,0-1.4,0.4-1.5
						C404.9,211.6,405.4,212.1,405.5,212.8z"/>
				</g>
				<path fill="#263238" stroke="#263238" stroke-linecap="round" stroke-linejoin="round" stroke-miterlimit="10" d="M385.5,199.1
					c-0.8,0.7-1.2,1.7-1.5,2.6c-1.2,4.2-0.7,8.9,1.5,12.7c0,0,1.1-0.1,2,0.1c0.7,0.2,1.6,1.4,1.9,2c0.3,0.6,0.4,1.4,0.5,2.1
					c-0.2-1.9-0.3-3.8-0.5-5.7c-0.1-0.8-0.1-1.5,0.1-2.3c0,0,0,0,0,0c0.5-1.6-0.1-5.2,0.1-8.5c4.2,5.1,10.2,4.2,12.2,4
					c3-0.2,5.6-3.3,5.4-5.5c-0.2-2.2-0.7-7.8-10.6-8.4c-2.2-0.1-4.5,0.1-6.3,1.3c-1.2,0.8-2,2.1-2.2,3.5c-0.1,0.9,0.2,1-0.5,1.4
					C387.1,198.9,386.2,198.6,385.5,199.1z"/>
				<path fill="#FFFFFF" stroke="#263238" stroke-linecap="round" stroke-linejoin="round" stroke-miterlimit="10" d="M398.6,221.9
					c0,0,1.5,1.6,4.5,0.5"/>
			</g>
		</g>
	</g>
</g>
</svg>
