<?xml version="1.0" encoding="utf-8"?>
<!-- Generator: Adobe Illustrator 22.0.1, SVG Export Plug-In . SVG Version: 6.00 Build 0)  -->
<svg version="1.1" xmlns="http://www.w3.org/2000/svg" xmlns:xlink="http://www.w3.org/1999/xlink" x="0px" y="0px"
	 viewBox="0 0 3710 3710" enable-background="new 0 0 3710 3710" xml:space="preserve">
<g id="Background">
</g>
<g id="Illustration">
	<g>
		<linearGradient id="SVGID_1_" gradientUnits="userSpaceOnUse" x1="3413.7266" y1="3591.4019" x2="1374.1101" y2="1389.9108">
			<stop  offset="0" style="stop-color:#DAE3FE"/>
			<stop  offset="1" style="stop-color:#E9EFFD"/>
		</linearGradient>
		<path fill="url(#SVGID_1_)" d="M3129.5,2336.9c-280.3,655.1-1020,936.4-1599.7,888.5c-158.3-13.1-476.7-39.5-725.3-274.6
			C327,2499.2,400.5,1555.3,857.6,999.7c58.9-71.6,466.3-551,1101.2-544.6c464.9,4.7,791.1,267.3,830.8,300
			c50.1,41.3,160.7,139.5,260.3,295.3C3284,1416.5,3304.6,1927.5,3129.5,2336.9z"/>
		<g>
			<g>
				<g opacity="0.3">
					<path fill="#87C34D" d="M1319,1049.3c5.4,1.3,9.1,6.5,8.4,12.1c-1.6,12.4-3.7,24.9-6.4,37.1c-1.3,6-7.2,9.7-13.1,8.5
						c-0.1,0-0.1,0-0.2,0c-5.8-1.4-9.5-7.2-8.2-13.1c2.5-11.6,4.6-23.5,6.1-35.2c0.8-6,6.3-10.3,12.4-9.5
						C1318.3,1049.2,1318.7,1049.3,1319,1049.3z M1296.2,1142.8c0.4,0.1,0.8,0.2,1.3,0.4c5.7,2.1,8.7,8.4,6.6,14.2
						c-4.3,11.8-9.1,23.5-14.4,34.8c-2.6,5.5-9.1,7.9-14.7,5.4c-5.5-2.6-7.9-9.1-5.4-14.7c5-10.7,9.6-21.9,13.7-33
						C1285.3,1144.4,1290.9,1141.5,1296.2,1142.8z M1253.5,1228.9c1.2,0.3,2.4,0.8,3.5,1.5c5.1,3.3,6.6,10.1,3.3,15.3
						c-6.8,10.5-14.1,20.8-21.8,30.7c-3.7,4.8-10.7,5.7-15.5,2c-4.8-3.7-5.7-10.7-2-15.5c7.3-9.4,14.2-19.2,20.7-29.2
						C1244.2,1229.6,1249,1227.8,1253.5,1228.9z M1192.5,1303.2c2,0.5,3.8,1.5,5.4,3c4.2,4.4,4.1,11.4-0.2,15.6
						c-9,8.7-18.4,17.1-28.1,25.1c-4.7,3.9-11.7,3.2-15.5-1.6c-3.9-4.7-3.2-11.7,1.6-15.5c9.2-7.5,18.2-15.5,26.7-23.8
						C1185,1303.3,1188.9,1302.4,1192.5,1303.2z M1116.4,1362.1c2.8,0.7,5.3,2.4,6.9,5c3.2,5.2,1.5,12-3.7,15.2
						c-10.7,6.5-21.7,12.6-32.9,18.2c-5.5,2.7-12.1,0.5-14.8-4.9c-2.7-5.5-0.5-12.1,4.9-14.8c10.6-5.3,21.2-11.1,31.3-17.3
						C1110.7,1361.9,1113.7,1361.5,1116.4,1362.1z M1029.3,1402.8c3.6,0.8,6.7,3.5,7.9,7.2c1.9,5.8-1.2,12-6.9,14
						c-11.8,4-24,7.5-36.1,10.5c-5.9,1.4-11.9-2.2-13.3-8.1c-1.4-5.9,2.2-11.9,8.1-13.3c11.5-2.8,23.1-6.2,34.3-10
						C1025.2,1402.4,1027.3,1402.3,1029.3,1402.8z M629.5,1335.4c1.5,0.4,2.9,1,4.2,2c9.4,7.3,19.2,14.2,29.2,20.6
						c5.1,3.3,6.6,10.1,3.3,15.3c-3.3,5.1-10.1,6.6-15.3,3.3c-10.5-6.8-20.9-14.1-30.8-21.7c-4.8-3.7-5.7-10.7-2-15.5
						C621,1335.8,625.5,1334.4,629.5,1335.4z M935.3,1423c4.5,1.1,8,4.8,8.4,9.6c0.6,6.1-3.8,11.5-9.9,12.1
						c-12.4,1.3-25.1,2-37.6,2.2c-6.1,0.1-11.1-4.8-11.2-10.9c-0.1-6.1,4.8-11.1,10.9-11.2c11.9-0.2,23.9-0.9,35.7-2
						C932.9,1422.7,934.2,1422.8,935.3,1423z M711.8,1385.3c0.7,0.2,1.4,0.4,2.1,0.7c10.8,5,21.9,9.5,33.1,13.6
						c5.7,2.1,8.7,8.4,6.6,14.1c-2.1,5.7-8.4,8.7-14.1,6.6c-11.8-4.3-23.5-9.1-34.8-14.3c-5.5-2.6-8-9.1-5.4-14.7
						C701.4,1386.5,706.8,1384.1,711.8,1385.3z M839.2,1421.8c5.4,1.3,9.1,6.5,8.4,12.1c-0.8,6-6.3,10.3-12.3,9.6
						c-12.4-1.6-24.9-3.7-37.1-6.3c-0.1,0-0.2,0-0.2,0c-5.8-1.4-9.5-7.2-8.3-13.1c1.3-6,7.1-9.8,13.1-8.5c11.6,2.5,23.5,4.5,35.2,6
						C838.4,1421.7,838.8,1421.7,839.2,1421.8z"/>
					<path fill="#87C34D" d="M572.8,1282.6c2.1,0.5,4.1,1.6,5.7,3.4c3.8,4.2,7.8,8.5,11.7,12.6c4.3,4.4,4.2,11.4-0.2,15.6
						c-4.4,4.3-11.4,4.2-15.6-0.2c-4.2-4.3-8.4-8.8-12.4-13.2c-4.1-4.5-3.7-11.5,0.8-15.6C565.6,1282.6,569.4,1281.8,572.8,1282.6z"
						/>
				</g>
				<g opacity="0.3">
					<path fill="#87C34D" d="M463.7,964.2c5.2,1.2,8.9,6.1,8.5,11.5c-0.4,5.7-0.7,11.5-0.9,17.2c-0.2,6.1-5.3,10.9-11.4,10.7
						c-6.1-0.2-10.9-5.3-10.7-11.4c0.2-6,0.5-12.1,0.9-18.1c0.4-6.1,5.7-10.6,11.8-10.2C462.5,964,463.1,964.1,463.7,964.2z"/>
					<path fill="#87C34D" d="M990.9,576.7c4.9,1.2,9.9,2.4,14.8,3.8c5.9,1.6,9.4,7.7,7.8,13.5c-1.6,5.9-7.7,9.4-13.5,7.8
						c-11.4-3.1-22.9-5.7-34.3-7.8c-6-1.1-10-6.9-8.8-12.9c1.1-6,6.9-10,12.9-8.9C976.6,573.6,983.8,575.1,990.9,576.7z
						 M1060.7,599.6c0.6,0.1,1.2,0.3,1.8,0.6c11.3,4.8,22.6,10.2,33.5,15.9c5.4,2.8,7.5,9.5,4.6,14.9c-2.8,5.4-9.5,7.5-14.9,4.6
						c-10.3-5.4-21-10.5-31.8-15.1c-5.6-2.4-8.2-8.9-5.9-14.5C1050.2,601,1055.6,598.4,1060.7,599.6z M911.9,565.7
						c5.1,1.2,8.7,5.9,8.5,11.2c-0.3,6.1-5.4,10.8-11.5,10.5c-11.7-0.5-23.5-0.6-35.2-0.1c-6.1,0.2-11.2-4.5-11.5-10.6
						c-0.2-6.1,4.5-11.2,10.6-11.5c12.3-0.5,24.8-0.4,37,0.1C910.5,565.4,911.2,565.5,911.9,565.7z M1143.3,645.9
						c1.4,0.3,2.7,0.9,3.9,1.8c10,7.2,19.8,14.9,29.2,22.9c4.6,4,5.2,10.9,1.2,15.6c-4,4.6-10.9,5.2-15.6,1.2
						c-8.9-7.6-18.2-14.9-27.7-21.7c-5-3.6-6.1-10.5-2.5-15.4C1134.5,646.5,1139.1,644.9,1143.3,645.9z M817.5,571.8
						c4.2,1,7.5,4.3,8.3,8.8c1.1,6-2.9,11.7-8.9,12.8c-11.5,2-23,4.6-34.3,7.6c-5.9,1.6-11.9-1.9-13.5-7.8
						c-1.6-5.9,1.9-11.9,7.8-13.5c11.9-3.2,24.1-5.9,36.1-8C814.6,571.4,816.1,571.5,817.5,571.8z M726.8,598.6
						c3.3,0.8,6.2,3.1,7.7,6.5c2.4,5.6-0.3,12.1-5.9,14.4c-10.8,4.5-21.5,9.5-31.9,14.9c-5.4,2.8-12.1,0.7-14.9-4.7
						c-2.8-5.4-0.7-12.1,4.7-14.9c10.9-5.7,22.2-11,33.5-15.7C722.2,598.2,724.6,598,726.8,598.6z M644,644.4
						c2.5,0.6,4.9,2.1,6.5,4.4c3.5,5,2.3,11.9-2.6,15.4c-9.6,6.8-18.9,14-27.9,21.5c-4.7,3.9-11.6,3.3-15.6-1.3
						c-3.9-4.7-3.3-11.6,1.3-15.6c9.4-7.9,19.3-15.5,29.3-22.6C637.8,644.3,641,643.7,644,644.4z M573.2,707.3
						c1.8,0.4,3.4,1.3,4.9,2.6c4.5,4.1,4.9,11.1,0.8,15.6c-7.8,8.7-15.4,17.8-22.5,27.1c-3.7,4.9-10.6,5.8-15.5,2.1
						c-4.9-3.7-5.8-10.6-2.1-15.5c7.4-9.8,15.4-19.4,23.6-28.5C565.3,707.5,569.4,706.4,573.2,707.3z M517.9,784.1
						c1,0.2,2,0.6,2.9,1.1c5.3,3,7.2,9.7,4.2,15c-5.7,10.2-11.1,20.7-15.9,31.4c-2.5,5.5-9.1,8-14.6,5.5c-5.5-2.5-8-9.1-5.5-14.6
						c5.1-11.2,10.7-22.3,16.8-33C508.2,785.1,513.3,783,517.9,784.1z M480.9,871.2c0.2,0.1,0.4,0.1,0.7,0.2
						c5.8,1.8,9.1,7.9,7.4,13.8c-2.5,8.2-4.7,16.7-6.7,25c-0.7,3-1.4,6.1-2,9.1c-1.3,6-7.1,9.8-13.1,8.5c-6.1-1.2-9.8-7.1-8.5-13.1
						c0.7-3.2,1.4-6.4,2.1-9.6c2.1-8.8,4.5-17.6,7.1-26.3C469.5,873.1,475.3,869.8,480.9,871.2z"/>
					<path fill="#87C34D" d="M1213.8,709.5c2.1,0.5,4.1,1.6,5.7,3.4c4,4.5,7.9,9.1,11.7,13.8c3.9,4.7,3.2,11.7-1.6,15.5
						c-4.7,3.9-11.7,3.2-15.5-1.6c-3.6-4.4-7.4-8.8-11.1-13.1c-4-4.6-3.6-11.5,0.9-15.6C1206.7,709.5,1210.4,708.7,1213.8,709.5z"/>
				</g>
				<g>
					<path fill="#87C34D" d="M1169.9,830.7c-1-2-3.1-3.1-5.3-2.9l-62.3,7.6c-18.5-22.8-40.8-42.7-66.3-58.8l0-62.8
						c0-2.2-1.4-4.2-3.5-4.9l-71.2-24.6c-2.1-0.7-4.4,0-5.7,1.7l-38.7,49.4c-30-3.1-59.9-1.1-88.5,5.3l-44.4-44.4
						c-1.6-1.6-3.9-2-5.9-1l-67.7,32.9c-2,1-3.1,3.1-2.9,5.3l7.6,62.3c-22.8,18.5-42.7,40.8-58.8,66.3l-62.8,0
						c-2.2,0-4.2,1.4-4.9,3.5L564,936.7c-0.7,2.1,0,4.4,1.7,5.7l49.4,38.7c-3.1,30-1.1,59.9,5.3,88.5L576,1114c-1.6,1.6-2,3.9-1,5.9
						l32.9,67.7c1,2,3.1,3.1,5.3,2.9l62.3-7.6c18.5,22.8,40.8,42.7,66.3,58.8l0,62.8c0,2.2,1.4,4.2,3.5,4.9l71.2,24.6
						c2.1,0.7,4.4,0,5.7-1.7l38.7-49.4c30,3.1,59.9,1.1,88.5-5.3l44.4,44.4c1.6,1.6,3.9,2,5.9,1l67.7-32.9c2-1,3.1-3.1,2.9-5.3
						l-7.6-62.3c22.8-18.5,42.7-40.8,58.8-66.3l62.8,0c2.2,0,4.2-1.4,4.9-3.5l24.6-71.2c0.7-2.1,0-4.4-1.7-5.7l-49.4-38.7
						c3.1-30,1.1-59.9-5.3-88.5l44.4-44.4c1.6-1.6,2-3.9,1-5.9L1169.9,830.7z"/>
					<path fill="#87C34D" d="M906.4,935.5c35.9,8.5,61.2,42.3,58,80.1c-3.6,41.6-40.3,72.5-81.9,69c-20.2-1.7-38.4-11.2-51.4-26.7
						c-13-15.5-19.3-35.1-17.5-55.2c3.6-41.6,40.3-72.5,81.9-69C899.1,934.1,902.8,934.7,906.4,935.5z M875.5,1065.7
						c2.8,0.7,5.6,1.1,8.5,1.4c31.9,2.7,60.1-21,62.8-52.9c2.7-31.9-21-60.1-52.9-62.8c-31.9-2.7-60.1,21-62.8,52.9
						c-1.3,15.5,3.4,30.5,13.4,42.4C852.6,1056.2,863.4,1062.8,875.5,1065.7z"/>
					<path fill="#87C34D" d="M930,828.7c6.2,1.5,12.3,3.2,18.4,5.3l0,0c1.9,0.7,3.8,1.4,5.7,2.1c9.3,3.6,18.3,7.9,26.9,12.8
						c0.1,0.1,0.2,0.1,0.4,0.2c0.3,0.2,0.7,0.4,1,0.6c0.6,0.4,1.3,0.8,1.9,1.1c1.7,1,2.4,3,2,4.8c-0.1,0.4-0.3,0.9-0.5,1.3
						c-1.3,2.1-4,2.7-6.1,1.5c-10.7-6.5-22.2-11.9-34.2-16c-59.4-20.5-122.4-7.6-168.3,28.9c-25.5,20.3-45.8,47.8-57.2,80.8
						c-2,5.8-3.7,11.6-5.1,17.5c-9.3,39.6-4.8,80.9,13.2,118c20.7,42.6,56.8,74.6,101.5,90.1c92.5,31.9,193.6-17.3,225.5-109.7
						c2-5.7,3.6-11.5,5-17.3c6-25.3,6.3-51.5,1-77c-0.1-0.7-0.1-1.3,0-1.9c0.4-1.6,1.7-2.9,3.4-3.3c2.4-0.5,4.7,1,5.2,3.4
						c5.6,26.7,5.2,54.3-1,80.8c-1.4,6.1-3.2,12.2-5.3,18.2c-33.5,97-139.8,148.7-236.8,115.1c-47-16.2-84.9-49.8-106.6-94.5
						c-18.9-38.9-23.7-82.3-13.9-123.8c1.5-6.2,3.2-12.3,5.3-18.4c16.2-47,49.8-84.9,94.5-106.6C845.1,823.6,888.4,818.9,930,828.7z
						"/>
				</g>
			</g>
			<g>
				<g opacity="0.3">
					<path fill="#87C34D" d="M1768.2,801.8c2.9,0.7,5.1,3.2,5.2,6.3c0.3,5.8,0.5,11.6,0.4,17.4c0,3.8-3.1,6.8-6.9,6.8
						c-3.8,0-6.8-3.1-6.8-6.9c0-5.5-0.1-11.1-0.4-16.6c-0.2-3.8,2.7-7,6.4-7.2C1766.9,801.6,1767.6,801.7,1768.2,801.8z"/>
					<path fill="#87C34D" d="M1766.2,854.2c3.4,0.8,5.6,4,5.2,7.5c-1.3,9.9-3.1,19.8-5.4,29.5c-0.5,2-1,4.1-1.5,6.1
						c-0.9,3.6-4.8,5.7-8.3,4.9c-3.6-0.9-5.8-4.7-4.9-8.3c0.5-2,1-3.9,1.5-5.9c2.2-9.2,3.9-18.7,5.2-28.1c0.5-3.7,3.9-6.4,7.6-5.9
						C1765.7,854.1,1766,854.2,1766.2,854.2z M1748.5,922.8c0.3,0.1,0.6,0.2,0.9,0.3c3.5,1.4,5.2,5.3,3.9,8.8
						c-4.4,11.2-9.6,22.3-15.3,32.9c-1.8,3.3-6,4.5-9.2,2.7c-3.3-1.8-4.5-5.9-2.7-9.2c5.5-10.1,10.4-20.7,14.6-31.4
						C1741.8,923.7,1745.2,922,1748.5,922.8z M1714.7,985c0.8,0.2,1.7,0.6,2.4,1.1c3.1,2.2,3.8,6.5,1.6,9.5
						c-7,9.8-14.8,19.3-23,28.1c-2.6,2.8-6.9,2.9-9.6,0.4c-2.8-2.6-2.9-6.9-0.4-9.6c7.8-8.5,15.2-17.5,21.9-26.8
						C1709.2,985.3,1712.1,984.4,1714.7,985z M1666.6,1036.9c1.4,0.3,2.7,1.1,3.6,2.2c2.4,2.9,2.1,7.2-0.8,9.6
						c-9.2,7.8-19,15.1-29.1,21.7c-3.2,2.1-7.4,1.2-9.4-2c-2.1-3.2-1.2-7.4,2-9.4c9.6-6.3,19-13.2,27.8-20.6
						C1662.3,1036.9,1664.6,1036.5,1666.6,1036.9z M1607.3,1075.6c1.9,0.5,3.6,1.7,4.6,3.6c1.7,3.4,0.3,7.5-3.1,9.1
						c-10.8,5.3-22.1,10-33.5,13.9c-3.6,1.2-7.4-0.7-8.7-4.2c-1.2-3.6,0.7-7.4,4.2-8.7c10.9-3.8,21.6-8.2,32-13.3
						C1604.2,1075.4,1605.8,1075.3,1607.3,1075.6z M1540.4,1098.7c2.5,0.6,4.5,2.6,5.1,5.2c0.8,3.7-1.6,7.3-5.3,8.1
						c-11.8,2.5-23.9,4.3-35.9,5.3c-3.8,0.3-7.1-2.5-7.4-6.2c-0.3-3.7,2.5-7.1,6.2-7.4c11.4-1,23-2.7,34.2-5.1
						C1538.4,1098.5,1539.5,1098.5,1540.4,1098.7z M1469.9,1104.7c3.1,0.7,5.4,3.6,5.2,6.9c-0.1,3.8-3.3,6.7-7.1,6.6
						c-12-0.5-24.2-1.7-36.1-3.6c-3.7-0.7-6.2-4.1-5.6-7.8c0.6-3.7,4.1-6.2,7.8-5.6c11.4,1.9,23,3,34.4,3.5
						C1469.1,1104.6,1469.5,1104.6,1469.9,1104.7z M1366.7,1081.3c0.4,0.1,0.8,0.2,1.1,0.4c9.1,3.9,18.6,7.4,28.2,10.4
						c1.5,0.5,2.9,0.9,4.3,1.3c3.6,1.1,5.7,4.8,4.6,8.5c-1.1,3.6-4.9,5.8-8.5,4.6c-1.5-0.4-3.1-0.9-4.6-1.4
						c-10-3.1-20-6.8-29.6-10.9c-3.5-1.5-5-5.5-3.6-9C1360.2,1082.1,1363.6,1080.5,1366.7,1081.3z"/>
				</g>
				<g opacity="0.3">
					<path fill="#87C34D" d="M1543.1,536.4c3.6,0.9,5.9,4.5,5.1,8.1c-0.8,3.7-4.5,6-8.1,5.2c-11.1-2.5-22.4-4.3-33.6-5.4
						c-3.7-0.4-6.5-3.7-6.1-7.5c0.4-3.8,3.7-6.5,7.5-6.1C1519.5,531.9,1531.4,533.8,1543.1,536.4
						C1543,536.4,1543.1,536.4,1543.1,536.4z M1576.6,546c0.2,0.1,0.5,0.1,0.7,0.2c11.2,3.9,22.3,8.6,32.9,13.9
						c3.4,1.7,4.8,5.8,3.1,9.1c-1.7,3.4-5.8,4.7-9.1,3.1c-10.1-5-20.7-9.5-31.4-13.2c-3.6-1.2-5.4-5.1-4.2-8.7
						C1569.8,547,1573.3,545.2,1576.6,546z M1473.8,529.6c2.9,0.7,5.2,3.3,5.2,6.5c0.1,3.8-2.9,6.9-6.6,7
						c-11.3,0.3-22.8,1.3-33.9,2.9c-3.7,0.5-7.2-2-7.7-5.8c-0.6-3.7,2-7.2,5.8-7.7c11.7-1.7,23.7-2.8,35.6-3.1
						C1472.7,529.4,1473.2,529.5,1473.8,529.6z M1639,576.9c0.8,0.2,1.5,0.5,2.2,0.9c9.9,6.5,19.5,13.7,28.6,21.4
						c2.9,2.4,3.2,6.7,0.8,9.6c-2.4,2.9-6.7,3.2-9.6,0.8c-8.6-7.3-17.8-14.2-27.3-20.4c-3.1-2.1-4-6.3-2-9.4
						C1633.4,577.3,1636.3,576.2,1639,576.9z M1404.9,539.8c2.3,0.6,4.3,2.3,5,4.8c1,3.6-1.1,7.4-4.8,8.4c-10.9,3-21.8,6.7-32.2,11
						c-3.5,1.4-7.5-0.2-8.9-3.7c-1.4-3.5,0.2-7.5,3.7-8.9c11-4.5,22.3-8.4,33.8-11.5C1402.7,539.5,1403.9,539.5,1404.9,539.8z
						 M1340.5,566.2c1.8,0.4,3.4,1.6,4.4,3.3c1.8,3.3,0.7,7.4-2.6,9.3c-9.9,5.5-19.5,11.7-28.7,18.4c-3,2.2-7.3,1.6-9.5-1.5
						c-2.2-3-1.6-7.3,1.5-9.5c9.6-7,19.7-13.5,30.1-19.3C1337.2,566,1338.9,565.8,1340.5,566.2z M1284.3,607.2c1.3,0.3,2.5,1,3.4,2
						c2.6,2.7,2.4,7.1-0.3,9.6c-8.3,7.7-16.2,16.1-23.4,24.7c-2.4,2.9-6.7,3.3-9.6,0.8c-2.9-2.4-3.3-6.7-0.8-9.6
						c7.6-9.1,15.9-17.8,24.6-25.9C1279.8,607.3,1282.1,606.7,1284.3,607.2z"/>
					<path fill="#87C34D" d="M1692.4,622.2c1.3,0.3,2.5,1,3.4,2c4,4.3,7.8,8.7,11.4,13.2c2.4,2.9,2,7.2-1,9.6
						c-2.9,2.4-7.2,1.9-9.6-1c-3.5-4.2-7.1-8.5-10.9-12.6c-2.6-2.8-2.4-7.1,0.4-9.6C1687.9,622.2,1690.2,621.7,1692.4,622.2z"/>
				</g>
				<g>
					<path fill="#87C34D" d="M1666.6,706.6c-0.6-1.3-2.1-2.1-3.5-1.9l-41.7,5.1c-12.4-15.2-27.3-28.6-44.4-39.4l0-42
						c0-1.5-0.9-2.8-2.3-3.3l-47.6-16.5c-1.4-0.5-2.9,0-3.8,1.1l-25.9,33c-20.1-2.1-40.1-0.8-59.2,3.6l-29.7-29.7
						c-1-1-2.6-1.3-4-0.7l-45.3,22c-1.3,0.6-2.1,2.1-1.9,3.5l5.1,41.7c-15.2,12.4-28.6,27.3-39.4,44.4l-42,0c-1.5,0-2.8,0.9-3.3,2.3
						l-16.5,47.6c-0.5,1.4,0,2.9,1.1,3.8l33,25.9c-2.1,20.1-0.8,40.1,3.6,59.2l-29.7,29.7c-1,1-1.3,2.6-0.7,4l22,45.3
						c0.6,1.3,2.1,2.1,3.5,1.9l41.7-5.1c12.4,15.2,27.3,28.6,44.4,39.4l0,42c0,1.5,0.9,2.8,2.3,3.3l47.6,16.5c1.4,0.5,2.9,0,3.8-1.1
						l25.9-33c20.1,2.1,40.1,0.8,59.2-3.6l29.7,29.7c1,1,2.6,1.3,4,0.7l45.3-22c1.3-0.6,2.1-2.1,1.9-3.5l-5.1-41.7
						c15.2-12.4,28.6-27.3,39.4-44.4l42,0c1.5,0,2.8-0.9,3.3-2.3l16.5-47.6c0.5-1.4,0-2.9-1.1-3.8l-33-25.9
						c2.1-20.1,0.8-40.1-3.6-59.2l29.7-29.7c1-1,1.3-2.6,0.7-4L1666.6,706.6z"/>
					<path fill="#87C34D" d="M1490.6,775.9c10.7,2.5,20.3,8.4,27.5,17c8.9,10.5,13.1,23.9,11.9,37.6c-2.4,28.3-27.4,49.4-55.8,47
						c-28.4-2.5-49.4-27.5-47-55.8c1.2-13.7,7.6-26.2,18.2-35c10.5-8.9,23.9-13.1,37.6-11.9C1485.6,774.9,1488.1,775.3,1490.6,775.9
						z M1469.9,863c1.8,0.4,3.6,0.7,5.5,0.9c20.8,1.8,39.2-13.7,41-34.6c0.9-10.1-2.2-19.9-8.8-27.7c-6.5-7.8-15.7-12.5-25.8-13.4
						l0,0c-10.1-0.9-19.9,2.3-27.7,8.8c-7.8,6.5-12.5,15.7-13.4,25.8C1439.2,841.7,1451.9,858.7,1469.9,863z"/>
					<path fill="#87C34D" d="M1507.1,701.6c4.2,1,8.4,2.2,12.5,3.6c8.3,2.9,16.2,6.6,23.7,11c0.3,0.2,0.7,0.4,1,0.6
						c2.6,1.6,3.8,4.6,3.1,7.4c-0.2,0.7-0.4,1.3-0.8,2c-2,3.2-6.1,4.2-9.4,2.3c-7-4.2-14.4-7.7-22.1-10.4l0,0
						c-0.4-0.1-0.9-0.3-1.3-0.4c-18.3-6.1-37.5-7.5-56.1-4.2c-10.1,1.8-20,4.9-29.4,9.4c-0.1,0-0.2,0.1-0.2,0.1
						c-0.2,0.1-0.5,0.2-0.7,0.3c-27.6,13.4-48.3,36.8-58.3,65.7c-1.3,3.8-2.4,7.5-3.3,11.3c-6,25.6-3.1,52.4,8.6,76.4
						c13.4,27.6,36.8,48.3,65.7,58.3c29,10,60.1,8.1,87.7-5.3c27.6-13.4,48.3-36.8,58.3-65.7c1.3-3.7,2.4-7.4,3.2-11.2
						c3.9-16.4,4.1-33.4,0.6-49.8c-0.2-1-0.2-2,0-3c0.6-2.5,2.6-4.5,5.2-5.1c3.7-0.8,7.3,1.6,8.1,5.3c3.9,18.4,3.6,37.5-0.7,55.7
						c-1,4.2-2.2,8.4-3.6,12.5c-11.2,32.4-34.4,58.5-65.2,73.5c-30.9,15-65.7,17.1-98.1,5.9c-32.4-11.2-58.5-34.4-73.5-65.2
						c-13.1-26.9-16.3-56.7-9.6-85.4c1-4.3,2.2-8.5,3.7-12.7C1378,721.8,1443.8,686.6,1507.1,701.6z"/>
				</g>
			</g>
		</g>
		<g>
			<path fill="#6EA03A" d="M537.7,2687c39.7-400.9,139.2-1396.8,160.9-1542.3c27.3-182.9,251.5-142.6,251.5-142.6l48,1851.3H685.5
				c-42,0-82.1-18.1-110.2-49.9C547.2,2771.7,533.5,2729.5,537.7,2687z"/>
			<path fill="#87C34D" d="M3066.5,2900c97.6-2.1,175.1-82.9,173-180.5l-31.9-1502.9c-1.8-82.9-68.2-149.9-151.1-152.4L875.2,999.5
				c-64.9-1.9-118.4,50.2-118.3,115.1l5.2,1723.2c0.2,61,50.4,109.9,111.3,108.7L3066.5,2900z"/>
			<g>
				<path fill="#6EA03A" d="M3207.1,2773.9c31.2-0.5,54.8-28.5,50-59.3c-32.2-204.6-133.2-908.6-100.8-1493.1
					c1.5-26.7-19.2-49.3-45.9-50.2l-2191.2-69.9c-30-1-55.2,22.5-56.4,52.5c-9.3,245.7-44,1257.6,1.4,1617.3
					c2.8,21.9,21.6,38.2,43.7,37.8L3207.1,2773.9z"/>
				<path fill="#6EA03A" d="M3151.7,2750.8c30.1-0.5,52.8-27.4,48.1-57.1c-31-196.9-128.2-874.4-97-1436.8
					c1.4-25.6-18.5-47.5-44.1-48.3L950,1141.4c-28.9-0.9-53.1,21.7-54.2,50.6c-9,236.5-42.4,1210.3,1.3,1556.4
					c2.7,21.1,20.8,36.7,42,36.4L3151.7,2750.8z"/>
			</g>
			<path opacity="0.72" fill="#FFFFFF" d="M1855.7,1566l3.2,151.9c0.5,23.2-18.1,42.3-41.3,42.4l-155.8,0.9
				c-22.7,0.1-41.3-18-41.7-40.6l-3.4-159.7c-0.5-24,19.4-43.4,43.4-42.4l155.9,6.9C1837.9,1526.4,1855.2,1544.1,1855.7,1566z"/>
			<path opacity="0.72" fill="#FFFFFF" d="M2400.3,1759l-155.8,0.9c-22.7,0.1-41.3-18-41.7-40.6l-2.9-135.8
				c-0.5-23.9,19.2-43.2,43-42.4l155.9,5.6c22,0.8,39.6,18.6,40,40.6l2.7,129.3C2442.1,1739.8,2423.5,1758.8,2400.3,1759z"/>
			<path opacity="0.72" fill="#FFFFFF" d="M2263.8,2435.4l148.2-1.4c24.8-0.2,45.2,19.5,45.7,44.3l2.9,138.8
				c0.5,24.6-18.8,45.2-43.4,46.2l-148.1,6.3c-25.4,1.1-46.7-18.9-47.2-44.3l-3-143.6C2218.4,2456.5,2238.6,2435.7,2263.8,2435.4z"
				/>
			<path opacity="0.72" fill="#FFFFFF" d="M2513.1,2613.8l-2.9-135.7c-0.5-24.8,19.3-45.2,44.1-45.5l149.7-1.5
				c24.4-0.2,44.4,19.2,45,43.6l2.8,130.8c0.5,24.2-18.4,44.4-42.6,45.4l-149.6,6.3C2534.6,2658.4,2513.6,2638.7,2513.1,2613.8z"/>
			<path opacity="0.72" fill="#FFFFFF" d="M2500.1,2001.3l-2.4-111.4c-0.6-26.9,21.1-49,48-48.9l143,0.3c26,0,47.3,20.9,47.8,46.9
				l2.3,106.4c0.6,26.2-20.1,48.1-46.3,48.9l-142.9,4.7C2522.9,2049,2500.7,2027.9,2500.1,2001.3z"/>
			<path opacity="0.72" fill="#FFFFFF" d="M2507,2324.9l-3.6-170.3c-0.5-24.4,18.7-44.7,43.1-45.5l146.2-4.8
				c26.7-0.9,48.9,20.2,49.5,46.9l3.6,171.8c0.5,25-19.6,45.5-44.5,45.5l-149.8,0C2527.3,2368.5,2507.5,2349.1,2507,2324.9z"/>
			<linearGradient id="SVGID_2_" gradientUnits="userSpaceOnUse" x1="2039.375" y1="1511.3489" x2="1943.0214" y2="2794.3689">
				<stop  offset="0" style="stop-color:#FF928E"/>
				<stop  offset="1" style="stop-color:#FE7062"/>
			</linearGradient>
			<path fill="url(#SVGID_2_)" d="M2109,1760.6l-155.8,0.9c-22.7,0.1-41.3-18-41.7-40.6l-3.1-147.9c-0.5-23.9,19.2-43.2,43-42.4
				l155.9,5.6c22,0.8,39.6,18.6,40,40.6l3,141.4C2150.7,1741.4,2132.2,1760.5,2109,1760.6z"/>
			<path opacity="0.72" fill="#FFFFFF" d="M2215.6,2324.2l-3.4-159.3c-0.5-24.8,19-45.4,43.8-46.2l148.1-4.8
				c25.2-0.8,46.3,19.1,46.8,44.3l3.5,164.2c0.5,25.4-19.9,46.3-45.3,46.3l-148.2,0C2236.3,2368.5,2216.1,2348.8,2215.6,2324.2z"/>
			<path opacity="0.72" fill="#FFFFFF" d="M1949.2,1839.9l170.1,0.3c18.7,0,33.9,15,34.3,33.6l3.2,153.2
				c0.4,18.8-14.4,34.5-33.2,35.1l-170,5.6c-19.1,0.6-35.1-14.5-35.5-33.6l-3.4-159.1C1914.3,1855.7,1929.9,1839.8,1949.2,1839.9z"
				/>
			<path opacity="0.72" fill="#FFFFFF" d="M1862.4,1881.9l3.1,145.9c0.5,23.7-18.1,43.3-41.8,44.1l-152.3,5
				c-24,0.8-44.1-18.2-44.6-42.3l-3.2-151.2c-0.5-24.2,19-44.2,43.3-44.1l152.4,0.3C1842.8,1839.7,1861.9,1858.4,1862.4,1881.9z"/>
			<path opacity="0.72" fill="#FFFFFF" d="M2414.7,2052.6l-170,5.6c-19.1,0.6-35.1-14.5-35.5-33.6l-3.2-149
				c-0.4-19.3,15.1-35.1,34.4-35.1l170.1,0.3c18.7,0,33.9,15,34.3,33.6l3,143.1C2448.3,2036.3,2433.5,2051.9,2414.7,2052.6z"/>
			<path opacity="0.72" fill="#FFFFFF" d="M1964.9,2128.1l148.1-4.8c25.2-0.8,46.3,19.1,46.8,44.3l3.3,154.7
				c0.5,25.4-19.9,46.3-45.3,46.3l-148.2,0c-24.7,0-44.8-19.7-45.3-44.4l-3.2-149.8C1920.6,2149.6,1940.1,2128.9,1964.9,2128.1z"/>
			<path opacity="0.72" fill="#FFFFFF" d="M1668.6,2137.8l158.5-5.2c22.3-0.7,41,16.9,41.4,39.3l3.3,155.7c0.5,22.5-17.6,41-40.1,41
				l-158.6,0c-21.8,0-39.7-17.4-40.1-39.3l-3.2-150.5C1629.4,2156.8,1646.7,2138.6,1668.6,2137.8z"/>
			<path opacity="0.72" fill="#FFFFFF" d="M2669.8,1755.4l-118.2,0.7c-31.4,0.2-57.2-24.9-57.9-56.3l-2.1-97.5
				c-0.6-29.5,23.7-53.4,53.1-52.3l131.6,4.7c29.9,1.1,53.7,25.3,54.3,55.1l1.7,81.5C2733.1,1726.3,2705,1755.2,2669.8,1755.4z"/>
			<path opacity="0.72" fill="#FFFFFF" d="M2801.6,2478.7c-0.6-26.7,20.8-48.7,47.5-48.9l51.5-0.5c39.1-0.4,71.1,25.5,71.8,58.1
				l2,94.3c0.7,32.3-29.7,59.4-68.5,61l-55.3,2.3c-24.9,1.1-45.9-18.6-46.4-43.6L2801.6,2478.7z"/>
			<path opacity="0.72" fill="#FFFFFF" d="M1145.5,2446.3l101.3-1c24.8-0.2,45.3,19.6,45.8,44.4l3.7,176.7
				c0.5,24.7-18.8,45.2-43.4,46.3l-100.8,4.3c-40.2,1.7-73.9-24.5-74.6-58l-3.2-151.5C1073.5,2474.2,1105.6,2446.7,1145.5,2446.3z"
				/>
			<path opacity="0.72" fill="#FFFFFF" d="M2896.4,2368.5l-50.3,0c-26.1,0-47.4-20.8-47.9-46.9l-3.7-173.2
				c-0.6-26.2,20.1-48.1,46.3-48.9l50.6-1.7c39.9-1.3,73.1,24.8,73.8,58l3.2,151.5C2969.3,2340.8,2936.7,2368.5,2896.4,2368.5z"/>
			<path opacity="0.72" fill="#FFFFFF" d="M2892.2,2036.9l-63.3,2.1c-20.2,0.7-37-15.3-37.4-35.5l-2.7-125.1
				c-0.4-20.3,16-37.1,36.3-37l63.9,0.1c38.8,0.1,70.2,25.8,70.8,58.1l1.6,76.2C2962.2,2008.4,2931.3,2035.7,2892.2,2036.9z"/>
			<path fill="#87C34D" d="M1129.3,1499l101.6,3.6c22.9,0.8,41.1,19.4,41.6,42.2l3.7,174.5c0.5,24.1-18.8,44-42.9,44.1l-104.6,0.6
				c-39,0.2-70.8-25.6-71.5-58.1l-3.1-146C1053.4,1525.6,1087.9,1497.5,1129.3,1499z"/>
			<path opacity="0.72" fill="#FFFFFF" d="M1972.5,2438.2l148.2-1.4c24.8-0.2,45.2,19.5,45.7,44.4l3.1,148.3
				c0.5,24.6-18.8,45.2-43.4,46.2l-148.1,6.3c-25.4,1.1-46.7-18.9-47.2-44.3l-3.2-153.1C1927.1,2459.3,1947.3,2438.5,1972.5,2438.2z
				"/>
			<path opacity="0.72" fill="#FFFFFF" d="M1133.6,1838.4l102.9,0.2c23.5,0,42.6,18.8,43.1,42.3l3.5,166
				c0.5,23.7-18.1,43.3-41.8,44.1l-103.4,3.4c-39.9,1.3-73.1-24.8-73.8-58l-2.9-136.8C1060.6,1866,1093.3,1838.3,1133.6,1838.4z"/>
			<path opacity="0.72" fill="#FFFFFF" d="M1137.4,2155.2l107.5-3.5c22.3-0.7,41,16.9,41.4,39.3l2.9,136.7c0.5,22.5-17.6,41-40.1,41
				l-108,0c-38.8,0-70.3-25.8-71-58.1l-2-94.3C1067.4,2183.7,1098.3,2156.5,1137.4,2155.2z"/>
			<path opacity="0.72" fill="#FFFFFF" d="M1577.4,2181.4l3.1,146.2c0.5,22.5-17.6,41-40.1,41l-158.6,0c-21.8,0-39.7-17.4-40.1-39.3
				l-3-141c-0.5-22,16.8-40.2,38.8-41l158.5-5.2C1558.3,2141.4,1576.9,2159.1,1577.4,2181.4z"/>
			<path opacity="0.72" fill="#FFFFFF" d="M1390,2443.9l148.1-1.4c24.8-0.2,45.3,19.5,45.8,44.4l3.5,167.2
				c0.5,24.7-18.8,45.2-43.4,46.3l-148,6.3c-25.4,1.1-46.7-18.9-47.3-44.3l-3.6-172C1344.6,2465,1364.8,2444.1,1390,2443.9z"/>
			<path opacity="0.72" fill="#FFFFFF" d="M2883.9,1754.2l-62,0.3c-19.8,0.1-36-15.7-36.4-35.5l-2.6-122.3
				c-0.4-20.8,16.7-37.7,37.5-37l65.6,2.4c37.6,1.3,67.3,26.7,67.9,58l1.5,73C2956.2,1726.5,2923.9,1754,2883.9,1754.2z"/>
			<path opacity="0.72" fill="#FFFFFF" d="M1681.3,2441.1l145.6-1.4c26.2-0.3,47.8,20.6,48.3,46.9l3.3,155.2
				c0.5,24.7-18.8,45.2-43.4,46.3l-148,6.3c-25.4,1.1-46.7-18.9-47.3-44.3l-3.4-162.5C1635.8,2462.1,1656,2441.3,1681.3,2441.1z"/>
			<path opacity="0.72" fill="#FFFFFF" d="M1564.1,1555.4l3.4,162.4c0.5,24.1-18.8,44-42.9,44.1l-152.4,0.9
				c-23.6,0.1-42.9-18.7-43.4-42.3l-3.6-168.7c-0.5-24.8,19.9-45,44.7-44.1l152.6,5.5C1545.4,1514,1563.6,1532.5,1564.1,1555.4z"/>
			<path opacity="0.72" fill="#FFFFFF" d="M1571,1881.4l3.3,156c0.5,23.7-18.1,43.3-41.8,44.1l-152.3,5c-24,0.8-44.1-18.2-44.6-42.3
				l-3.4-161.2c-0.5-24.2,19-44.2,43.3-44.1l152.4,0.3C1551.4,1839.1,1570.5,1857.9,1571,1881.4z"/>
			<path fill="#FFFFFF" d="M2900.8,1430.6l-7,51.4c-2.2,16.5-16.1,28.9-32.8,29.2l-2.4,0.1c-18.7,0.4-34.1-14.4-34.5-33.1l-1.1-52.6
				c-0.4-20.4,17.2-36.5,37.5-34.3l10.6,1.2C2889.9,1394.5,2903.4,1411.7,2900.8,1430.6z"/>
			<path fill="#FFFFFF" d="M2662.1,1417.3l-7,51.4c-2.2,16.5-16.1,28.9-32.8,29.2l-2.4,0.1c-18.7,0.4-34.1-14.4-34.5-33.1l-1.1-52.6
				c-0.4-20.4,17.2-36.5,37.5-34.3l10.6,1.2C2651.2,1381.3,2664.7,1398.5,2662.1,1417.3z"/>
			<path fill="#FFFFFF" d="M2368.4,1421.4l-7,51.4c-2.2,16.5-16.1,28.9-32.8,29.2l-2.4,0.1c-18.7,0.4-34.1-14.4-34.5-33.1l-1.1-52.6
				c-0.4-20.4,17.2-36.5,37.5-34.3l10.6,1.2C2357.5,1385.3,2371,1402.6,2368.4,1421.4z"/>
			<path fill="#FFFFFF" d="M2082.3,1408.6l-7,51.4c-2.2,16.5-16.1,28.9-32.8,29.2l-2.4,0c-18.7,0.4-34.1-14.4-34.5-33.1l-1.1-52.6
				c-0.4-20.4,17.2-36.5,37.5-34.3l10.6,1.2C2071.4,1372.5,2084.9,1389.7,2082.3,1408.6z"/>
			<path fill="#FFFFFF" d="M1788.4,1371.2l-7,51.4c-2.2,16.5-16.1,28.9-32.8,29.2l-2.4,0.1c-18.7,0.4-34.1-14.4-34.5-33.1l-1.1-52.6
				c-0.4-20.4,17.2-36.5,37.5-34.3l10.6,1.2C1777.5,1335.1,1791,1352.4,1788.4,1371.2z"/>
			<path fill="#FFFFFF" d="M1477.1,1377.8l-7,51.4c-2.2,16.5-16.1,28.9-32.8,29.2l-2.4,0.1c-18.7,0.4-34.1-14.4-34.5-33.1l-1.1-52.6
				c-0.4-20.4,17.2-36.5,37.5-34.3l10.6,1.2C1466.2,1341.7,1479.6,1359,1477.1,1377.8z"/>
			<path fill="#FFFFFF" d="M1214.3,1372.3l-7,51.4c-2.2,16.5-16.1,28.9-32.8,29.2l-2.4,0.1c-18.7,0.4-34.1-14.4-34.5-33.1l-1.1-52.6
				c-0.4-20.4,17.2-36.5,37.5-34.3l10.6,1.2C1203.4,1336.2,1216.9,1353.5,1214.3,1372.3z"/>
			<g>
				
					<linearGradient id="SVGID_3_" gradientUnits="userSpaceOnUse" x1="1297.8936" y1="-8430.2207" x2="838.0805" y2="-7098.1128" gradientTransform="matrix(-1 0 0 1 -579.8593 0)">
					<stop  offset="0" style="stop-color:#FF928E"/>
					<stop  offset="1" style="stop-color:#FE7062"/>
				</linearGradient>
				<path fill="url(#SVGID_3_)" d="M1634.5,1952.9c0.6-11.1,12.3-15.9,20.8-9.1c24.2,19,34,48.6,45.9,76.1
					c13.9,32.1,27.2,64.5,39,97.4c12.5,34.7,23.1,70.1,31.1,106c16-42.9,34.7-84.6,58.3-124.2c6.3-10.5,24-4.4,20.5,8.1
					c-20.4,72.6-45.6,143.8-64.8,216.8c-6.8,25.8-42,19.7-44.6-5.1c-7.2-67.6-23.5-132.3-46.7-196.1c-11-30.4-23.3-60.2-36.1-89.9
					C1646.6,2006.6,1632.8,1982.1,1634.5,1952.9z"/>
				
					<linearGradient id="SVGID_4_" gradientUnits="userSpaceOnUse" x1="1350.2529" y1="-8412.124" x2="890.439" y2="-7080.0132" gradientTransform="matrix(-1 0 0 1 -579.8593 0)">
					<stop  offset="0" style="stop-color:#FF928E"/>
					<stop  offset="1" style="stop-color:#FE7062"/>
				</linearGradient>
				<path fill="url(#SVGID_4_)" d="M1601.3,2006.8c21-3.9,28.7,23,9.4,31.4c-127.5,56.1-144.2,214.1-52.1,309.8
					c42.6,44.3,99.1,78.6,152.6,108.2c54.3,30,114.9,52.8,177.9,46.5c146-14.7,165.9-163.3,122.2-278
					c-42-110.3-131.9-195.4-242-236.3c-14.2-5.3-8.7-28.4,5.9-23.2c103.3,37,191.2,110.1,245.7,205.7c50.1,88,80.2,212,14.6,300.3
					c-67.9,91.4-196.7,93-293.7,54.9c-106.8-41.9-239.7-119.6-282.2-232.4C1415.1,2175.7,1470,2031.4,1601.3,2006.8z"/>
			</g>
			<g>
				<path fill="#FFFFFF" d="M756.9,2824.8c3,0,5.5-2.5,5.5-5.5l6.7-970.3c0-3.1-2.4-5.5-5.5-5.6c0,0,0,0,0,0c-3,0-5.5,2.5-5.5,5.5
					l-6.7,970.3C751.4,2822.3,753.8,2824.8,756.9,2824.8C756.9,2824.8,756.9,2824.8,756.9,2824.8z"/>
				<path fill="#91B3FA" d="M765.2,1631.7c3,0,5.5-2.5,5.5-5.5l2.3-338.9c0-3.1-2.4-5.5-5.5-5.6c0,0,0,0,0,0c-3,0-5.5,2.5-5.5,5.5
					l-2.3,338.9C759.6,1629.2,762.1,1631.7,765.2,1631.7L765.2,1631.7z"/>
			</g>
			
				<ellipse transform="matrix(0.8817 -0.4719 0.4719 0.8817 -271.5022 1493.4182)" fill="#87C34D" cx="2842" cy="1288.1" rx="59.1" ry="59.1"/>
			
				<ellipse transform="matrix(0.5847 -0.8112 0.8112 0.5847 -62.161 2445.5911)" fill="#87C34D" cx="2357.6" cy="1283.5" rx="59.1" ry="59.1"/>
			
				<ellipse transform="matrix(0.9951 -9.853757e-02 9.853757e-02 0.9951 -115.8113 190.2982)" fill="#87C34D" cx="1868.6" cy="1267.6" rx="59.1" ry="59.1"/>
			
				<ellipse transform="matrix(0.9487 -0.3162 0.3162 0.9487 -322.6222 501.6084)" fill="#87C34D" cx="1384.2" cy="1244.8" rx="59.1" ry="59.1"/>
			<g>
				
					<linearGradient id="SVGID_5_" gradientUnits="userSpaceOnUse" x1="-1631.3983" y1="487.655" x2="-2148.8699" y2="1491.5485" gradientTransform="matrix(-1 0 0 1 -579.8593 0)">
					<stop  offset="0" style="stop-color:#FF928E"/>
					<stop  offset="1" style="stop-color:#FE7062"/>
				</linearGradient>
				<path fill="url(#SVGID_5_)" d="M1339.2,835.2c99.5,21.7,90.1,283.5,82.1,389.7c-1.9,25-22.7,44.3-47.8,44.3
					c-7,0-13.6-3-18.2-8.2c-4.7-5.2-6.9-12.1-6.1-19c8.6-80.3,26.9-311.6-46.4-324c0,0-52.5-9.3-61.4,92.5h-56.8
					C1184.6,1010.5,1214.2,807.9,1339.2,835.2z"/>
				
					<linearGradient id="SVGID_6_" gradientUnits="userSpaceOnUse" x1="-2115.7732" y1="500.9683" x2="-2633.4023" y2="1505.1677" gradientTransform="matrix(-1 0 0 1 -579.8593 0)">
					<stop  offset="0" style="stop-color:#FF928E"/>
					<stop  offset="1" style="stop-color:#FE7062"/>
				</linearGradient>
				<path fill="url(#SVGID_6_)" d="M1823.7,848.6c99.5,21.7,90.1,283.5,82.1,389.8c-1.9,25-22.7,44.3-47.8,44.3
					c-7,0-13.6-3-18.2-8.2c-4.7-5.2-6.9-12.1-6.1-19c8.6-80.3,26.9-311.8-46.4-324.2c0,0-52.5-7.3-61.4,92.3H1669
					C1669,1023.7,1698.6,821.3,1823.7,848.6z"/>
				
					<linearGradient id="SVGID_7_" gradientUnits="userSpaceOnUse" x1="-2600.1584" y1="514.3956" x2="-3117.8911" y2="1518.7957" gradientTransform="matrix(-1 0 0 1 -579.8593 0)">
					<stop  offset="0" style="stop-color:#FF928E"/>
					<stop  offset="1" style="stop-color:#FE7062"/>
				</linearGradient>
				<path fill="url(#SVGID_7_)" d="M2308.1,862.2c99.5,21.7,90.1,283.6,82.1,389.9c-1.9,25-22.7,44.4-47.8,44.4
					c-7,0-13.6-3-18.2-8.1c-4.7-5.2-6.9-12.1-6.1-19c8.6-80.3,26.9-311.9-46.4-324.3c0,0-52.5-5.9-61.4,94.2l-56.9-2
					C2153.4,1037.1,2183,834.9,2308.1,862.2z"/>
				
					<linearGradient id="SVGID_8_" gradientUnits="userSpaceOnUse" x1="-3084.5176" y1="529.814" x2="-3602.488" y2="1534.6755" gradientTransform="matrix(-1 0 0 1 -579.8593 0)">
					<stop  offset="0" style="stop-color:#FF928E"/>
					<stop  offset="1" style="stop-color:#FE7062"/>
				</linearGradient>
				<path fill="url(#SVGID_8_)" d="M2792.5,877.8c99.5,21.7,90.1,283.7,82.1,390c-1.9,25-22.7,44.4-47.8,44.4
					c-7,0-13.6-2.9-18.2-8.1c-4.6-5.2-6.9-12.1-6.1-19c8.6-80.3,26.9-312.2-46.4-324.5c0,0-52.5-7.7-61.4,91.9h-56.8
					C2637.8,1052.5,2667.4,850.5,2792.5,877.8z"/>
			</g>
		</g>
		<g>
			<g>
				<g>
					
						<linearGradient id="SVGID_9_" gradientUnits="userSpaceOnUse" x1="1035.2223" y1="1695.6958" x2="815.1114" y2="1966.2911" gradientTransform="matrix(-1 0 0 1 1938 0)">
						<stop  offset="0" style="stop-color:#FEBBBA"/>
						<stop  offset="1" style="stop-color:#FF928E"/>
					</linearGradient>
					<path fill="url(#SVGID_9_)" d="M843.5,1841.4l54.5,172.8c0,0,63.2,46.6,143.9,2.1c12.4-6.8,25.2-15.7,38.2-27.3
						c97.9-87.3,32.9-214.4,32.9-214.4s74.7-30.1,41.5-93.5c-2.3-4.3-8.7-3.6-10,1.1c-4.8,17.5-16.6,48-41.3,58.9
						c-1.3,0.5-2.5,1.1-3.6,1.6c-1.1-3.3-1.1-7.2,1.5-11.4c7.7-11.7-6.2-27.8-6.2-27.8s-0.9,14.2-11.6,23
						c-9.2,7.7-13.7,24.7-7.4,38.7c13.4,51.9,33.4,120.6-44.6,170.9c-8,5.1-16.3,8.2-24.8,9.6
						C932.1,1958.2,843.5,1841.4,843.5,1841.4z"/>
					<linearGradient id="SVGID_10_" gradientUnits="userSpaceOnUse" x1="426.9033" y1="2382.6477" x2="895.7337" y2="1970.1667">
						<stop  offset="0" style="stop-color:#FF928E"/>
						<stop  offset="1" style="stop-color:#FE7062"/>
					</linearGradient>
					<path fill="url(#SVGID_10_)" d="M843.5,1841.4l54.5,172.8c0,0,63.2,46.6,143.9,2.1l-35.3-70.6
						C932.1,1958.2,843.5,1841.4,843.5,1841.4z"/>
					<linearGradient id="SVGID_11_" gradientUnits="userSpaceOnUse" x1="874.751" y1="1465.7253" x2="474.1238" y2="2246.6958">
						<stop  offset="0" style="stop-color:#E1473D"/>
						<stop  offset="1" style="stop-color:#E9605A"/>
					</linearGradient>
					<path fill="url(#SVGID_11_)" d="M827.2,1629.4c0,0,30.9-107.5-84.6-77.9c0,0-56.6-7.9-58.2,45.4c0,0-24.4,36.8-25.5,82.2
						c0,0-111.1,28.7-128.7,73.3c-17.9,45.6-8,118,37.6,130.5c0,0-36.3,19.3-17.9,60.5c18.4,41.2,107.1,68.5,157.9,16.6
						c0,0,148.4,16.1,143-88.3c0,0,67.8-46-6.5-130.7C770,1656.3,827.2,1629.4,827.2,1629.4z"/>
					<linearGradient id="SVGID_12_" gradientUnits="userSpaceOnUse" x1="410.626" y1="2364.1465" x2="879.4557" y2="1951.666">
						<stop  offset="0" style="stop-color:#FF928E"/>
						<stop  offset="1" style="stop-color:#FE7062"/>
					</linearGradient>
					<path fill="url(#SVGID_12_)" d="M836.2,1822.4c-23.3-7-91.3-19.9-155.9,39.7c-11,10.1-15.4,25.5-11.5,39.9
						c17.4,63.9,63.1,252.7,23,334.3c0,0,70.8,78,147.9,15.1c0,0,34.6-150.9,80-217.2c31.3-45.7-49.9-171.8-70.5-202.2
						C846.2,1827.4,841.6,1824,836.2,1822.4z"/>
					<linearGradient id="SVGID_13_" gradientUnits="userSpaceOnUse" x1="779.3242" y1="1892.5206" x2="774.8163" y2="1709.9468">
						<stop  offset="0" style="stop-color:#FEBBBA"/>
						<stop  offset="1" style="stop-color:#FF928E"/>
					</linearGradient>
					<path fill="url(#SVGID_13_)" d="M771.8,1695.4c0,0-34.5,97.6-37.1,140.7c0,0,38.1,17.3,74.1-11.9c0,0,3.8-97.5,9.2-114.9
						L771.8,1695.4z"/>
					
						<linearGradient id="SVGID_14_" gradientUnits="userSpaceOnUse" x1="-14198.3877" y1="5221.543" x2="-14023.7949" y2="5422.2783" gradientTransform="matrix(-0.9534 0.3019 0.3019 0.9534 -14275.5928 932.4522)">
						<stop  offset="0" style="stop-color:#FEBBBA"/>
						<stop  offset="1" style="stop-color:#FF928E"/>
					</linearGradient>
					<path fill="url(#SVGID_14_)" d="M827.1,1599c0,0,93.2,124.1,40.1,162.1c-53.1,37.9-119.4-50.3-119.4-50.3s-22.6-68.6-1.2-92.6
						C768,1594.3,827.1,1599,827.1,1599z"/>
					<linearGradient id="SVGID_15_" gradientUnits="userSpaceOnUse" x1="849.9457" y1="1453.0006" x2="449.3192" y2="2233.97">
						<stop  offset="0" style="stop-color:#E1473D"/>
						<stop  offset="1" style="stop-color:#E9605A"/>
					</linearGradient>
					<path fill="url(#SVGID_15_)" d="M784.7,1569.8c0,0,41.7,8.8,47.9,27.5c6.2,18.6-57.9,37.5-76,38.8l-12.8,76
						c0,0-44.8-70.2-28.7-111.7C731.2,1558.9,784.7,1569.8,784.7,1569.8z"/>
					
						<linearGradient id="SVGID_16_" gradientUnits="userSpaceOnUse" x1="-14154.7656" y1="5183.6021" x2="-13980.1768" y2="5384.3325" gradientTransform="matrix(-0.9534 0.3019 0.3019 0.9534 -14275.5928 932.4522)">
						<stop  offset="0" style="stop-color:#FEBBBA"/>
						<stop  offset="1" style="stop-color:#FF928E"/>
					</linearGradient>
					<path fill="url(#SVGID_16_)" d="M765.1,1701.1c0,0-36.1-39.8-49.4-13c-13.3,26.8,32.7,45.7,48.2,32.3L765.1,1701.1z"/>
					
						<linearGradient id="SVGID_17_" gradientUnits="userSpaceOnUse" x1="13578.7236" y1="3476.8772" x2="13995.2813" y2="2741.563" gradientTransform="matrix(1 -9.500000e-03 9.500000e-03 1 -13093.5254 56.9446)">
						<stop  offset="0" style="stop-color:#FEBBBA"/>
						<stop  offset="1" style="stop-color:#FF928E"/>
					</linearGradient>
					<path fill="url(#SVGID_17_)" d="M929.9,2568.3c-0.3,6.9,11.8,61.2,18.3,90.2c2.6,11.7,0.8,23.9-5.1,34.3l-226.8,381.6
						c-2.7,4.6-4.7,9.6-6,14.8c-4.2,17.9-12.8,61.8-8.3,101.7l11.7,24.4l-50.7-11.5l-11-136.2l14.4-8.8
						c12.4-7.6,22.1-18.9,27.6-32.3c20.5-49.8,71.4-176.6,84.5-238.4c14.9-70.2,92.9-127.3,92.9-127.3l-13.7-32.4L929.9,2568.3z"/>
					<path fill="#87C34D" d="M606.7,3156.9c0,0,27.4-43.4,30.6-60.3c3.2-16.9,12.2-46.8,29.1-37.8c0,0,8,82.1,5.2,114.2
						c-2.7,32.1,36.3,31.1,36.3,31.1s10.8,1.5,18.6,9.4c5.4,5.4,1.5,14.9-6.1,15.4c-12.8,0.8-33.1,1-54.3-3.1
						c-7.4-1.4-13-7.8-13.4-15.3l-5.6-94.5l-34.6,43.6L606.7,3156.9z"/>
					<linearGradient id="SVGID_18_" gradientUnits="userSpaceOnUse" x1="847.3002" y1="2878.7229" x2="1268.7957" y2="2592.4661">
						<stop  offset="0" style="stop-color:#FEBBBA"/>
						<stop  offset="1" style="stop-color:#FF928E"/>
					</linearGradient>
					<path fill="url(#SVGID_18_)" d="M794.4,2629.1c0,0-8,341.4-9.1,389.9c-1.1,48.5,7.7,155.9,56.3,188l-21.1,15.7
						c0,0-26.4-22.5-52.3-65.7c-29-48.6-37.8-57.4-37.8-57.4l9.6-19.7c4.2-8.6,5.5-18.4,3.5-27.8c-10.5-50.8-45.5-219.9-55.1-256.3
						c-11.3-43-12.1-100.4,27.2-148.4C754.9,2599.2,794.4,2629.1,794.4,2629.1z"/>
					<path fill="#87C34D" d="M749.5,3238c-1.5,0-2.8-1.1-3-2.6c-1.6-11.4-8.4-57-13.9-68.8c-6.3-13.5-26.9-70.5,0-75.3
						c0,0,67,97.8,79.8,111c12.9,13.2,29.1,4.6,29.1,4.6s12.5,3.7,22,15.8c4.5,5.7,0.3,14.2-7,14.2l-45.1,0.4
						c-13.1,0.1-24.9-7.8-29.8-20c-7.9-19.8-21.6-48.9-37.5-61.8l8.3,79.1C752.7,3236.5,751.3,3238,749.5,3238z"/>
					<path fill="#87C34D" d="M850.4,2214.6c0,0-10.2,32.4,5.5,85.8l96.9,338.3c1.5,5.3-1.3,10.9-6.6,12.7
						c-29,10.4-124.2,39.8-254.3,30.8c-6.5-0.5-12-5.1-13.5-11.5c-8.6-38.6-37.8-170.2-43.8-197.2c-22.9-103-48.5-214.1,64.1-281.3
						C750.7,2214.5,799.1,2227.6,850.4,2214.6z"/>
					<linearGradient id="SVGID_19_" gradientUnits="userSpaceOnUse" x1="317.7969" y1="2258.6335" x2="786.6261" y2="1846.1534">
						<stop  offset="0" style="stop-color:#FF928E"/>
						<stop  offset="1" style="stop-color:#FE7062"/>
					</linearGradient>
					<path fill="url(#SVGID_19_)" d="M537.3,2083.8c0,0-0.7,0-0.7,0c12.2-9.6,77-9.9,77-9.9s47.1-68.2,63-85.1c0.5-0.5,1-1,1.5-1.5
						c0.3-0.3,0.7-0.7,1.2-1.1c5.8-5.4,12-10.8,18.7-16.4c7.4-6.2,13.3-14.1,16.9-23.1c24.9-62.8,5.2-103.8-40.1-77.5
						c0,0-95.8,79.6-133,192.4c-0.4,1.4-0.8,2.7-1.2,4c-1.5,5.2-3,10.2-4.3,14.8c-0.1,0.3,0.3,0.8,0.2,1.2
						C536.3,2082.3,537.5,2083,537.3,2083.8z"/>
				</g>
				
					<linearGradient id="SVGID_20_" gradientUnits="userSpaceOnUse" x1="3569.8564" y1="2139.3152" x2="3826.1777" y2="2139.3152" gradientTransform="matrix(1 0 0 1 -3037.2822 0)">
					<stop  offset="0" style="stop-color:#FEBBBA"/>
					<stop  offset="1" style="stop-color:#FF928E"/>
				</linearGradient>
				<path fill="url(#SVGID_20_)" d="M774.2,2124.8c0,0-111.3,62.9-148.9,9.2c-7.8-11.2-13.7-49.6-11.7-60.1
					c-33.4-16.8-58.5,7.9-77.2,6.5c-4.9,25.8-7.3,50.8,7.8,78.5c65.8,120.4,244.7-6.7,244.7-6.7L774.2,2124.8z"/>
				<g>
					<path fill="#87C34D" d="M760.8,2204.4l60.8-212.2c0.7-2.4,2.7-4.2,5.2-4.5c11-1.3,42.9-4.9,79.7-8c44.4-3.8,95.9-6.8,126.7-4.2
						c4.4,0.4,7,5,5.1,8.9c-17.5,35.4-89.5,179.5-125.6,226.7c-1.2,1.6-3,2.5-5,2.5l-141-1.3
						C762.6,2212.2,759.7,2208.3,760.8,2204.4z"/>
					<path fill="#6EA03A" d="M912.8,1961.3l44.1-7.3c2.3-0.4,4.3,1.9,3.5,4.1l-4.4,13.2c-0.4,1.2-1.4,2-2.6,2.1l-42.4,5.7
						c-2.2,0.3-4-1.7-3.5-3.9l2.7-11.5C910.5,1962.5,911.6,1961.5,912.8,1961.3z"/>
					<path fill="#6EA03A" d="M879.8,1998.6l3.6-18.9c0.4-1.9,1.9-3.3,3.8-3.5l89-9c3-0.3,5.4,2.4,4.7,5.4l-5.7,23.6
						c-0.5,1.9-2.1,3.2-4,3.3l-86.9,4.4C881.5,2004,879.3,2001.4,879.8,1998.6z"/>
					
						<linearGradient id="SVGID_21_" gradientUnits="userSpaceOnUse" x1="3806.8875" y1="2117.1296" x2="3887.832" y2="2117.1296" gradientTransform="matrix(1 0 0 1 -3037.2822 0)">
						<stop  offset="0" style="stop-color:#FEBBBA"/>
						<stop  offset="1" style="stop-color:#FF928E"/>
					</linearGradient>
					<path fill="url(#SVGID_21_)" d="M775.5,2153.1c0,0-8.5-34.8-5-47.1c3.4-12.3,10-28.2,32.1-24.7c22,3.5,48.1,12.8,48.1,12.8
						s-1.3,16.1-18.1,10.9l10.4,8c0,0-1.5,12.9-15.6,6l9.7,10.7c0,0-6.1,10.6-16.5,3.8C810,2126.7,805,2157.3,775.5,2153.1z"/>
				</g>
			</g>
		</g>
		<g>
			<path fill="#6EA03A" d="M2756.5,3165.6c31.3,2.7,85.7,7.1,128.6,9c25.8,1.1,40.6-1.4,49.2-4.8c0,1,0,1.9-0.1,2.7
				c-0.2,4.5-3.9,8.1-8.4,8.4c-81,4.5-145.5,1.6-168.4,0.2c-4.7-0.3-7.6-5.4-5.1-9.5C2753.4,3169.6,2754.9,3167.6,2756.5,3165.6z"/>
			<path fill="#87C34D" d="M2885.1,3174.6c-42.9-1.9-97.3-6.3-128.6-9c30.8-37.8,128.6-63.3,128.6-63.3h27.6
				c19,27.4,21.8,53.5,21.5,67.5C2925.7,3173.2,2910.9,3175.8,2885.1,3174.6z"/>
			
				<linearGradient id="SVGID_22_" gradientUnits="userSpaceOnUse" x1="-2393.8354" y1="3088.551" x2="-2342.2964" y2="3088.551" gradientTransform="matrix(-1 0 0 1 523.5299 0)">
				<stop  offset="0" style="stop-color:#FEBBBA"/>
				<stop  offset="1" style="stop-color:#FF928E"/>
			</linearGradient>
			<path fill="url(#SVGID_22_)" d="M2917.4,3057.2l-2.6,51.2c-0.3,5.5-4.4,10.2-10,11c-5.5,0.8-12.9,0.9-20.8-1.7
				c-4.8-1.6-8.4-5.7-9.3-10.6l-8.9-49.8H2917.4z"/>
			<g>
				<path fill="#87C34D" d="M3238,3224.6c13.6-2.5,19.7-11.6,22.3-21.3c0,0.1,0,0.2,0.1,0.3c2,10.3-2.6,21-11.9,26
					c-11.2,6.1-23.5,7.2-33,6.7c-10.2-0.5-19.6-6-24.7-14.7l-0.1-0.1C3201,3228,3215.3,3228.7,3238,3224.6z"/>
				<path fill="#87C34D" d="M3173.9,3073h22.8c34.7-0.9,56.5,93.7,63.6,130.3c-2.6,9.8-8.7,18.9-22.3,21.3
					c-22.7,4.1-37,3.3-47.3-3.2c-18.7-31.9-28-78.6-32.5-105.8C3153.1,3084.6,3173.9,3073,3173.9,3073z"/>
			</g>
			
				<linearGradient id="SVGID_23_" gradientUnits="userSpaceOnUse" x1="-2683.3005" y1="3061.6753" x2="-2621.7061" y2="3061.6753" gradientTransform="matrix(-1 0 0 1 523.5299 0)">
				<stop  offset="0" style="stop-color:#FEBBBA"/>
				<stop  offset="1" style="stop-color:#FF928E"/>
			</linearGradient>
			<path fill="url(#SVGID_23_)" d="M3193.8,3025.5l12.7,50.3c1.6,6.2-1.4,12.6-7.1,15.5c-7.1,3.6-17,7.4-26.2,6.3
				c-4.3-0.5-7.9-3.6-9.3-7.6l-18.6-52.9L3193.8,3025.5z"/>
			<path fill="#87C34D" d="M2748.7,2362.8c0,0,113.1,706.7,111.2,710.6c0,0,31.2,14.2,65.3,1.8c0,0-10.2-377.8-34.2-522.6
				c0,0,192.9,337.7,254.2,505.9c0,0,32-3.8,58.4-21.2c0,0-207.8-607.8-263.2-688.7L2748.7,2362.8z"/>
			<path fill="#6EA03A" d="M2886.5,2548.9c0.6,0,1.2-0.2,1.8-0.5c1.6-1,2-3,1.1-4.6l-42.2-67.5c-0.5-0.8-1.3-1.3-2.2-1.5l-31.1-6.3
				c-1.8-0.4-3.6,0.8-3.9,2.6c-0.4,1.8,0.8,3.6,2.6,3.9l29.7,6l41.5,66.3C2884.3,2548.3,2885.4,2548.9,2886.5,2548.9z"/>
			<linearGradient id="SVGID_24_" gradientUnits="userSpaceOnUse" x1="2675.5037" y1="2043.3662" x2="2239.3792" y2="1708.6664">
				<stop  offset="0" style="stop-color:#FEBBBA"/>
				<stop  offset="1" style="stop-color:#FF928E"/>
			</linearGradient>
			<path fill="url(#SVGID_24_)" d="M2229.9,1670.8c0,0,76.3,16.8,122.7,38.2c9.2,4.3,16.6,11.7,20.8,20.9
				c13.9,30.4,55.4,106.6,135.9,143c-11.6,15.4-30.3,47.4-38.4,101.2c-48.4-36-90.1-96.1-110.2-194.7c0,0-15.3,8.3-34.3-0.9
				c-10.1-4.9-21.7-11.8-30.4-17.3c-8.7-5.4-15.2-13.9-17.7-23.7c-3.3-13-1.4-24.5-1.4-36.7l-39.2-12.1
				C2237.8,1688.6,2226,1684.1,2229.9,1670.8z"/>
			<linearGradient id="SVGID_25_" gradientUnits="userSpaceOnUse" x1="2456.3726" y1="2485.0525" x2="2902.6624" y2="1927.1902">
				<stop  offset="0" style="stop-color:#FF928E"/>
				<stop  offset="1" style="stop-color:#FE7062"/>
			</linearGradient>
			<path fill="url(#SVGID_25_)" d="M2470.9,1974.1c8.1-53.8,26.8-85.8,38.4-101.2c50,22.6,115.1,29.8,197.9,1.1
				c7.6-2.6,15.6-4.2,23.7-4.7c44.1-2.6,189.5-7.3,309.7,32.4c25.3,8.4,45.8,27.1,56.4,51.3c32.5,74.7,85.2,244.7-61,330.5
				c-11.2-27.9-24.2-50.3-35.3-66.8c23.5-39.7,30.5-94-11.3-164.6c-30.5,82.3-44.8,202.3-47.8,255.5c-1,17.5,2.1,35,8.9,51.1
				l0.7,1.8c1.5,3.5-0.6,7.4-4.2,8.3c-82.3,18.5-167.9,13.5-193.5,11.4c-4.6-0.4-8.4-3.6-9.4-8.1c-40-168.7-40.1-283.7-30.3-356.5
				C2676.4,2024,2561.9,2041.9,2470.9,1974.1z"/>
			<linearGradient id="SVGID_26_" gradientUnits="userSpaceOnUse" x1="2935.0962" y1="1417.0983" x2="2813.3806" y2="1738.2916">
				<stop  offset="0" style="stop-color:#E1473D"/>
				<stop  offset="1" style="stop-color:#E9605A"/>
			</linearGradient>
			<path fill="url(#SVGID_26_)" d="M2713.7,2020.2c1.7,0,3.1-1.2,3.3-2.9c9.4-71,28.5-102,28.7-102.3c1-1.6,0.5-3.6-1-4.6
				c-1.6-1-3.6-0.5-4.6,1c-0.8,1.3-20.1,32.3-29.7,105c-0.2,1.8,1,3.5,2.9,3.7C2713.4,2020.2,2713.6,2020.2,2713.7,2020.2z"/>
			
				<linearGradient id="SVGID_27_" gradientUnits="userSpaceOnUse" x1="-2379.8528" y1="1969.3759" x2="-2353.1646" y2="1829.2623" gradientTransform="matrix(-1 0 0 1 523.5299 0)">
				<stop  offset="0" style="stop-color:#FEBBBA"/>
				<stop  offset="1" style="stop-color:#FF928E"/>
			</linearGradient>
			<path fill="url(#SVGID_27_)" d="M2916.9,1771.1c0,0,8.3,88.1,15.7,114.1c1.1,4-0.6,8.1-4.2,10.2c-12.4,7.1-42.3,18.7-83.1-1.3
				c-6.6-3.2-10.6-10.1-10.3-17.4l3.6-85.1L2916.9,1771.1z"/>
			<g>
				
					<linearGradient id="SVGID_28_" gradientUnits="userSpaceOnUse" x1="-2307.6382" y1="1712.3119" x2="-2459.9114" y2="1828.824" gradientTransform="matrix(-1 0 0 1 523.5299 0)">
					<stop  offset="0" style="stop-color:#FEBBBA"/>
					<stop  offset="1" style="stop-color:#FF928E"/>
				</linearGradient>
				<path fill="url(#SVGID_28_)" d="M2836.8,1658.5c0,0-26.6,61.2-28.4,93.3c-1.8,32.1-8.7,53,28.4,59.4c37.1,6.5,68.4-12,85.4-44
					c0,0,26.6-49.3,20.6-69.5C2936.8,1677.5,2836.8,1658.5,2836.8,1658.5z"/>
				<path fill="#74B521" d="M2909.4,1744.2l-2.1-0.9c-2.7-1.2-3.8-4.4-2.5-7c5.2-10.1,15.4-33.3,2.3-38.7c-17-7-84.3-20.7-98.8-44.6
					c-14-23-1.6-52.6,17-61c1.2-0.6,2.7-0.1,3.3,1.1l1.5,2.9c1.1,2,4,1.7,4.7-0.5c0.6-2.1,3.4-2.5,4.5-0.7
					c4.5,7.1,16.5,18.7,48.8,24.7c45.8,8.5,76.1,27,76.9,58.7c0,2,2.2,3.1,3.9,2.1c3.4-2.1,8.8-3,16,3.1c12.6,10.6,7.4,38-20.1,60.6
					c-1.3,1.1-1.3,3.1,0.1,4c5,3.3,12.5,11-6.9,21.3c-20,10.7-34.9,9.8-40.6,8.9c-1.4-0.2-2.4-1.6-2-3l6.1-27.8
					c0.3-1.6-0.9-3.1-2.5-3.1H2909.4z"/>
				
					<linearGradient id="SVGID_29_" gradientUnits="userSpaceOnUse" x1="-2326.5259" y1="1687.627" x2="-2478.7991" y2="1804.139" gradientTransform="matrix(-1 0 0 1 523.5299 0)">
					<stop  offset="0" style="stop-color:#FEBBBA"/>
					<stop  offset="1" style="stop-color:#FF928E"/>
				</linearGradient>
				<path fill="url(#SVGID_29_)" d="M2908.3,1750c0,0,10.2-39.1,27.7-28.1c17.5,11-9.1,43.8-23.2,45.3L2908.3,1750z"/>
			</g>
			<linearGradient id="SVGID_30_" gradientUnits="userSpaceOnUse" x1="2291.6575" y1="1739.2703" x2="2351.5256" y2="1739.2703">
				<stop  offset="0" style="stop-color:#FF928E"/>
				<stop  offset="1" style="stop-color:#FE7062"/>
			</linearGradient>
			<path fill="url(#SVGID_30_)" d="M2340.4,1770.3c0.7,0,1.5-0.2,2.1-0.7c1.4-1.2,1.6-3.3,0.5-4.7c-2.9-3.6-28.5-34.9-38.3-40.4
				c-3.6-2-5.7-4.1-6.2-6.1c-0.2-0.9-0.1-2,0.4-3.1l30.1,6l17,14.6c1.4,1.2,3.5,1,4.7-0.4c1.2-1.4,1-3.5-0.4-4.7l-17.7-15.2
				c-0.4-0.4-1-0.6-1.5-0.7l-33.3-6.7c-1.3-0.3-2.7,0.3-3.4,1.4c-2.4,3.6-3.2,7-2.5,10.3c0.9,3.9,4,7.3,9.4,10.3
				c7.4,4.2,28.8,29.4,36.5,38.8C2338.5,1769.9,2339.4,1770.3,2340.4,1770.3z"/>
			<linearGradient id="SVGID_31_" gradientUnits="userSpaceOnUse" x1="2895.9792" y1="2336.2585" x2="3119.1248" y2="1954.2072">
				<stop  offset="0" style="stop-color:#FEBBBA"/>
				<stop  offset="1" style="stop-color:#FF928E"/>
			</linearGradient>
			<path fill="url(#SVGID_31_)" d="M2909.6,2326l-117.7,1.5l41.2-38.8c10.2-9.6,25.9-11.2,37.7-3.5c6.9,4.5,14.4,10.6,20.9,18.7
				c0,0,73.4-26.8,109-86.9c11.1,16.5,24.1,38.9,35.3,66.8C3004.1,2302.4,2962.7,2317.1,2909.6,2326z"/>
			<g>
				<path fill="#6EA03A" d="M2896.9,2341.2c-0.2,0-0.5,0-0.7,0l-298.9-0.3c-7.4,0-13.4-5.9-13.4-13.2c0-7.3,6-13.4,13.4-13.2
					l298.9,0.3c7.4,0,13.4,5.9,13.4,13.2C2909.6,2335,2903.9,2340.8,2896.9,2341.2z"/>
				<path fill="#87C34D" d="M2328.7,2072.7h248.9c18.4,0,35.1,10.5,42.9,26.9l115.1,241.4h-309.3c-11.8,0-22.5-7.2-26.8-18
					l-89.2-223.4C2305,2086.7,2314.6,2072.7,2328.7,2072.7z"/>
				<linearGradient id="SVGID_32_" gradientUnits="userSpaceOnUse" x1="2464.2722" y1="2202.4009" x2="2506.4141" y2="2202.4009">
					<stop  offset="0" style="stop-color:#DAE3FE"/>
					<stop  offset="1" style="stop-color:#E9EFFD"/>
				</linearGradient>
				<path fill="url(#SVGID_32_)" d="M2504,2196.5c5.4,16.6,1.4,32.7-8.9,36c-10.3,3.3-23-7.5-28.4-24.1c-5.4-16.6-1.4-32.7,8.9-36
					C2485.9,2169.1,2498.6,2179.9,2504,2196.5z"/>
			</g>
		</g>
	</g>
</g>
</svg>
